<svg xmlns="http://www.w3.org/2000/svg" viewBox="0 0 445.19 362.29"><defs><style>.cls-1{fill:#fff;}.cls-2{fill:#cbb899;}</style></defs><g id="Calque_2" data-name="Calque 2"><g id="Calque_3" data-name="Calque 3"><rect class="cls-1" x="83.99" y="315.97" width="96.94" height="35.74"/><path class="cls-1" d="M228.69,152.78c-11.19-5.69-21.95-3.35-31.91,3.73-2.05,1.46-4,3.08-6.17,4.34a16.94,16.94,0,0,1-9.68,2.47V10.26a72.16,72.16,0,0,0-48,19.37c-26.31,24.48-32,67.69-5.42,99.74L120,136.25C103,115.74,96.94,92.69,101,67c-9.77-3.27-23.17-3.55-34.65-.82-38.21,9.08-62,45.94-54.68,84.69C17.51,182,45,206.48,75.78,208c6.83.35,8,1.54,8,8.36q0,42.11,0,84.21v4.56h97.16V199.69a15.26,15.26,0,0,1,3.77.22c4.27.77,8.41,3.59,12.07,6.23,8.11,5.86,16.93,8,26.52,5.54,13.67-3.57,21.52-15.13,21.57-30.71C244.9,168.42,240,158.51,228.69,152.78ZM134.82,273.32h-9.75V206.87h9.75Z"/><rect class="cls-1" x="262.06" y="315.98" width="99.38" height="35.74"/><path class="cls-1" d="M367.7,64.55a60.34,60.34,0,0,0-23.18,2.19c2.89,28-4.28,55.21-17.61,67l-7.44-6.09c26.61-34.34,17.3-78.77-10.89-101.45a72,72,0,0,0-46.52-15.92V156a10,10,0,0,0,6.09-1.81c3.22-2,6.09-4.52,9.26-6.61,17.88-11.79,40.1-7.36,51.08,10.74,8.08,13.31,8.71,27.5,2.18,41.79A36.49,36.49,0,0,1,320,213.92v59.32h-9.9v-54a37.68,37.68,0,0,1-17.58,1.54c-8.29-1.16-14.94-5.42-21.26-10.48-2.74-2.2-5.71-4.4-9.15-3.84v98.67h99.6v-4.56q0-42.47,0-85c0-5.82,1.45-7.29,7.22-7.59,34.47-1.81,63.72-31,65.74-65.62C437,101.67,408.33,68.24,367.7,64.55Z"/><path class="cls-2" d="M127.49,129.37,120,136.25C103,115.74,96.94,92.69,101,67c-9.77-3.27-23.17-3.55-34.65-.82-38.21,9.08-62,45.94-54.68,84.69C17.51,182,45,206.48,75.78,208c6.83.35,8,1.54,8,8.36q0,42.11,0,84.21v4.56h97.16V316H84v35.74h96.94v10.57H81.56c-7.1,0-8.11-1-8.11-8.3V224.12c0-5.59,0-5.59-5.54-6.5A81.18,81.18,0,0,1,.83,148.44,82.66,82.66,0,0,1,62.32,56.51a81.43,81.43,0,0,1,41,.11C117.66,21.32,142.74.49,180.93,0V10.26a72.16,72.16,0,0,0-48,19.37C106.6,54.11,101,97.32,127.49,129.37Z"/><rect class="cls-2" x="125.07" y="206.87" width="9.75" height="66.45"/><path class="cls-2" d="M443.55,120.86a79,79,0,0,0-27.85-47.4c-21.71-18-46.63-23-73.66-17.14C327.16,20.26,301.25-.49,262.06,0V10.27a72,72,0,0,1,46.52,15.92c28.19,22.68,37.5,67.11,10.89,101.45l7.44,6.09c13.33-11.78,20.5-39,17.61-67a60.34,60.34,0,0,1,23.18-2.19c40.63,3.69,69.29,37.12,66.92,77.9-2,34.62-31.27,63.81-65.74,65.62-5.77.3-7.21,1.77-7.22,7.59q0,42.48,0,85v4.56h-99.6V316h99.38v35.74H262.06v10.57H364c6.82,0,7.94-1.14,7.94-8.09V218.41c23.81-3,43.25-13.67,57.4-33S448,144.3,443.55,120.86Z"/><path class="cls-2" d="M310.05,219.28v54H320V213.93A34,34,0,0,1,310.05,219.28Z"/></g></g></svg>