<svg xmlns="http://www.w3.org/2000/svg" viewBox="0 0 445.19 515.7"><defs><style>.cls-1{fill:#fff;}.cls-2{fill:#cbb899;}</style></defs><g id="Calque_2" data-name="Calque 2"><g id="Calque_3" data-name="Calque 3"><rect class="cls-1" x="83.99" y="315.97" width="96.94" height="35.74"/><path class="cls-1" d="M228.69,152.78c-11.19-5.69-21.95-3.35-31.91,3.73-2.05,1.46-4,3.08-6.17,4.34a16.94,16.94,0,0,1-9.68,2.47V10.26a72.16,72.16,0,0,0-48,19.37c-26.31,24.48-32,67.69-5.42,99.74L120,136.25C103,115.74,96.94,92.69,101,67c-9.77-3.27-23.17-3.55-34.65-.82-38.21,9.08-62,45.94-54.68,84.69C17.51,182,45,206.48,75.78,208c6.83.35,8,1.54,8,8.36q0,42.11,0,84.21v4.56h97.16V199.69a15.26,15.26,0,0,1,3.77.22c4.27.77,8.41,3.59,12.07,6.23,8.11,5.86,16.93,8,26.52,5.54,13.67-3.57,21.52-15.13,21.57-30.71C244.9,168.42,240,158.51,228.69,152.78ZM134.82,273.32h-9.75V206.87h9.75Z"/><rect class="cls-1" x="262.06" y="315.98" width="99.38" height="35.74"/><path class="cls-1" d="M367.7,64.55a60.34,60.34,0,0,0-23.18,2.19c2.89,28-4.28,55.21-17.61,67l-7.44-6.09c26.61-34.34,17.3-78.77-10.89-101.45a72,72,0,0,0-46.52-15.92V156a10,10,0,0,0,6.09-1.81c3.22-2,6.09-4.52,9.26-6.61,17.88-11.79,40.1-7.36,51.08,10.74,8.08,13.31,8.71,27.5,2.18,41.79A36.49,36.49,0,0,1,320,213.92v59.32h-9.9v-54a37.68,37.68,0,0,1-17.58,1.54c-8.29-1.16-14.94-5.42-21.26-10.48-2.74-2.2-5.71-4.4-9.15-3.84v98.67h99.6v-4.56q0-42.47,0-85c0-5.82,1.45-7.29,7.22-7.59,34.47-1.81,63.72-31,65.74-65.62C437,101.67,408.33,68.24,367.7,64.55Z"/><path class="cls-2" d="M127.49,129.37,120,136.25C103,115.74,96.94,92.69,101,67c-9.77-3.27-23.17-3.55-34.65-.82-38.21,9.08-62,45.94-54.68,84.69C17.51,182,45,206.48,75.78,208c6.83.35,8,1.54,8,8.36q0,42.11,0,84.21v4.56h97.16V316H84v35.74h96.94v10.57H81.56c-7.1,0-8.11-1-8.11-8.3V224.12c0-5.59,0-5.59-5.54-6.5A81.18,81.18,0,0,1,.83,148.44,82.66,82.66,0,0,1,62.32,56.51a81.43,81.43,0,0,1,41,.11C117.66,21.32,142.74.49,180.93,0V10.26a72.16,72.16,0,0,0-48,19.37C106.6,54.11,101,97.32,127.49,129.37Z"/><rect class="cls-2" x="125.07" y="206.87" width="9.75" height="66.45"/><path class="cls-2" d="M443.55,120.86a79,79,0,0,0-27.85-47.4c-21.71-18-46.63-23-73.66-17.14C327.16,20.26,301.25-.49,262.06,0V10.27a72,72,0,0,1,46.52,15.92c28.19,22.68,37.5,67.11,10.89,101.45l7.44,6.09c13.33-11.78,20.5-39,17.61-67a60.34,60.34,0,0,1,23.18-2.19c40.63,3.69,69.29,37.12,66.92,77.9-2,34.62-31.27,63.81-65.74,65.62-5.77.3-7.21,1.77-7.22,7.59q0,42.48,0,85v4.56h-99.6V316h99.38v35.74H262.06v10.57H364c6.82,0,7.94-1.14,7.94-8.09V218.41c23.81-3,43.25-13.67,57.4-33S448,144.3,443.55,120.86Z"/><path class="cls-2" d="M310.05,219.28v54H320V213.93A34,34,0,0,1,310.05,219.28Z"/><path class="cls-1" d="M108.85,437.91q0,24,2.65,24t7.13-6.1A88,88,0,0,0,127.46,440q4.33-9.63,5.29-9.63c.64,0,1,.39,1,1.18q0,4.11-5,15Q118,469.38,109.44,469.38a20,20,0,0,1-5.88-.81,7.41,7.41,0,0,1-3.23-1.54q-1.48-1.77-1.48-12.94,0-26.47,1.77-42.94A116,116,0,0,0,85,430.26a82,82,0,0,1,3.09,20.37q0,8.61-3.31,13.31t-8.31,4.7q-6,0-6-11.61,0-7.95,6.33-21a92.84,92.84,0,0,0-8.53-20.15,176.18,176.18,0,0,1-7.21,27.35q-4.85,14-10,20.81t-12.2,6.84c-3.44,0-5.15-1.32-5.15-4q0-3.24,2.21-4.56a17.31,17.31,0,0,1,5.22-2A8.53,8.53,0,0,0,45,458.79q5.74-6,10.81-20.58a168.7,168.7,0,0,0,7.43-29.86q-6.33-8.24-6.33-12.28a12.2,12.2,0,0,1,2.14-7.13q2.13-3.09,7-3.09,1.47,0,2.5,3.75a29.49,29.49,0,0,1,1,7.87,110.08,110.08,0,0,1,13.68,27.06,157.44,157.44,0,0,1,18.82-25q4.56-27.79,10.59-27.79c1.37,0,2.81,1,4.34,3.09a10.58,10.58,0,0,1,2.28,6.32q0,10-8.68,20.29Q108.85,413.93,108.85,437.91Zm-30.58,4.41q-3.54,7.8-3.53,13.9t1.47,6.1c1,0,1.71-1.2,2.2-3.6a37.85,37.85,0,0,0,.74-7.58A49.59,49.59,0,0,0,78.27,442.32Z"/><path class="cls-1" d="M170.76,469.38c-3.82,0-6.72-.78-8.67-2.35q-1-1-1-5.22c0-2.8.09-6.55.29-11.25q-3.82,9.56-7.57,14.19a11.85,11.85,0,0,1-9.64,4.63q-5.88,0-10.29-5.52t-4.41-17.35a34.49,34.49,0,0,1,6.69-20.95q6.69-9.12,17.57-9.12,4.71,0,10.59,6.18a20.75,20.75,0,0,1,4.19-3.9q3-2.28,5.15-2.28t2.13,5.59a38.24,38.24,0,0,1-.81,5.73,22.74,22.74,0,0,1-1.84,6.18q-1.32,3.39-1.32,24c0,2.65.3,4,.88,4q2.51-.15,6.91-6.25A91,91,0,0,0,188.33,440q4.33-9.56,5.3-9.56c.63,0,1,.39,1,1.18,0,2.74-1.42,7.11-4.26,13.08Q178.7,469.39,170.76,469.38Zm-17.94-47.06q-4.11,0-8.75,6.11a23,23,0,0,0-4.63,14.33q0,8.24,2.43,13.53c1.61,3.53,3.75,5.3,6.39,5.3q4.86,0,14.27-24.27c.09-.78.22-2.13.36-4s.27-3.36.37-4.34a13.57,13.57,0,0,0-4.63-4.49A11.18,11.18,0,0,0,152.82,422.32Z"/><path class="cls-1" d="M183,401.44a4.75,4.75,0,0,1-2-4.26,5.4,5.4,0,0,1,2.72-4.71,9.45,9.45,0,0,1,5.08-1.76,6.09,6.09,0,0,1,4,1.32,4,4,0,0,1,1.62,3.24q0,7.49-7.5,7.49A7,7,0,0,1,183,401.44Zm12.42,67.94q-5.73,0-8.67-2.35-1-1-1-7.36t1-21.1q.94-14.77,1.69-15.95a27,27,0,0,1,4.55-4.41q3.82-3.24,6-3.24t2.13,5.59a39.21,39.21,0,0,1-.81,5.59,26,26,0,0,1-1.83,6.32q-1.92,4.13-1.92,25.44c0,2.65.3,4,.89,4q2.49-.15,6.91-6.25A92.31,92.31,0,0,0,213,440q4.34-9.56,5.29-9.56c.64,0,1,.39,1,1.18,0,2.74-1.42,7.11-4.27,13.08Q203.41,469.39,195.46,469.38Zm7.28-67.94a4.74,4.74,0,0,1-2-4.26,5.37,5.37,0,0,1,2.79-4.71,9.77,9.77,0,0,1,5.15-1.76,5.79,5.79,0,0,1,3.9,1.32,4.1,4.1,0,0,1,1.54,3.24q0,7.49-7.35,7.49A7.25,7.25,0,0,1,202.74,401.44Z"/><path class="cls-2" d="M271.78,444.38a49,49,0,0,0,2.94-5.15q4.71-8.39,5.67-8.38c.63,0,.95.39.95,1.18q0,7.2-7.5,18.23-13.53,19.86-36,19.86a23.52,23.52,0,0,1-11.61-2.95,23.85,23.85,0,0,1-8.38-7.5,33.86,33.86,0,0,1-6.33-19.41q0-25.58,13.31-41.24t31.54-15.67a16.1,16.1,0,0,1,11.33,4,13.27,13.27,0,0,1,4.41,10.22A22.38,22.38,0,0,1,269,409.09q-3.09,5.3-7.43,5.29T257.23,412c0-1.77.95-3.77,2.86-6a10.5,10.5,0,0,0,2.87-6.77q0-10.43-11.1-10.44t-20.07,14.86q-9,14.85-9,30.58A31.91,31.91,0,0,0,229,453.57q6.18,8.46,17.35,8.46Q259.58,462,271.78,444.38Z"/><path class="cls-2" d="M284.28,460.7l.15,4.56c0,2.75-.79,4.12-2.35,4.12a23.67,23.67,0,0,1-6.77-1c-2.16-.63-3.23-1.52-3.23-2.64s.26-5,.8-11.62.81-11.59.81-14.93V430.7q0-37.63,13.39-47.93a10.31,10.31,0,0,1,6.32-2.36q1.47,0,2.94,3.24a20.41,20.41,0,0,1,1.47,8.38,65.19,65.19,0,0,1-4.26,23.68q-4.28,11-8.68,16.91-.15,3.67-.15,11.47.58-.88,6.18-10a92.29,92.29,0,0,1,9.48-13.38q3.9-4.27,7-4.27a8.28,8.28,0,0,1,5.51,2.06,6.47,6.47,0,0,1,2.43,5.15,188.19,188.19,0,0,1-1.4,19q-1.4,12.57-1.39,15.88c0,2.21.29,3.31.88,3.31q2.49-.15,6.91-6.25A91.62,91.62,0,0,0,329.06,440q4.33-9.56,5.29-9.56c.64,0,1,.39,1,1.18,0,2.74-1.42,7.11-4.27,13.08q-11.61,24.72-19.55,24.71-5.75,0-8.68-2.35-1-1-1-5.37t.81-14.12q.81-9.78.81-14.63c0-3.23-.57-4.85-1.69-4.85s-4.1,3.36-8.9,10.07-7.35,11-7.65,12.87A58.43,58.43,0,0,0,284.28,460.7Zm9.56-65.43q0-6.18-1.62-6.18-2.64,0-5.14,16.32a201.79,201.79,0,0,0-1.92,20.15Q293.84,407.47,293.84,395.27Z"/><path class="cls-2" d="M344.57,469.38a15.71,15.71,0,0,1-13.09-6.25,22.57,22.57,0,0,1-4.85-14.19q0-16,6.77-24.27a21.61,21.61,0,0,1,17.5-8.23,12.37,12.37,0,0,1,8.23,2.72,9.2,9.2,0,0,1,3.24,7.43q0,8.82-7.43,14.78t-18.16,6.25a18.74,18.74,0,0,0,3.89,9.92c2.21,2.8,4.78,4.19,7.72,4.19a15.42,15.42,0,0,0,7.95-2.06,22.74,22.74,0,0,0,6.47-5.88,86.08,86.08,0,0,0,10.58-18.38c.79-1.77,1.4-3,1.84-3.82s.93-1.18,1.47-1.18.81.39.81,1.18q0,7.35-9,22.05Q358.84,469.39,344.57,469.38Zm-7.79-25.29q8.67-1.47,12.72-5.59a14.69,14.69,0,0,0,4-10.74q0-6.61-4.26-6.61-5.16,0-8.68,7.13A38,38,0,0,0,336.78,444.09Z"/><path class="cls-2" d="M391.63,437.62a54.15,54.15,0,0,0,13.31-4.86,57.69,57.69,0,0,1,5.66-2.94c.59,0,.88.49.88,1.47s-1,2.21-2.94,3.68a58.13,58.13,0,0,1-15.44,7.79,121.12,121.12,0,0,1,3.82,30.88,108.76,108.76,0,0,1-3.09,26.18,27.74,27.74,0,0,1-5.51,11.47,11.63,11.63,0,0,1-9.19,4.41,6.44,6.44,0,0,1-6.47-4.12,26.59,26.59,0,0,1-2.5-9.26q-.45-6.92-.44-22.5a362.93,362.93,0,0,1,2.35-37.65c-3.53-2.54-5.29-5.66-5.29-9.33s.78-6.52,2.35-8.53a10.58,10.58,0,0,1,5.88-3.9q2.06-12.8,4.05-22.06a40.45,40.45,0,0,1,6.1-15.07q4.11-5.8,8.23-5.81,4.71,0,4.71,10.44,0,16.47-12.21,37.06A48.38,48.38,0,0,1,391.63,437.62Zm-17.21-13.53a3.17,3.17,0,0,0-2.2,3.38,8.59,8.59,0,0,0,1.17,4.56C373.78,428.5,374.13,425.85,374.42,424.09ZM381.33,445Q380,463.06,380,486.51t2.5,23.46q4.41,0,7.35-11.55a105,105,0,0,0,2.94-25.88,131.32,131.32,0,0,0-3.23-28.75A31.85,31.85,0,0,1,381.33,445Zm2.21-16.18-.88,1.47-.74,7.5a11.67,11.67,0,0,0,3.46.59,20.2,20.2,0,0,0,2.57-.14A38,38,0,0,0,383.54,428.79Zm0-5.88a96.46,96.46,0,0,0,7.79-16.69q3.54-9.63,3.53-16.1t-1.32-6.47q-2.35,0-5.07,10.73A240.79,240.79,0,0,0,383.54,422.91Z"/></g></g></svg>