<svg width="438" height="129" viewBox="0 0 438 129" fill="none" xmlns="http://www.w3.org/2000/svg">
<g clip-path="url(#clip0_28_626)">
<path d="M422.417 129H15.343C6.88471 129 0 122.137 0 113.736V15.2413C0 6.837 6.88471 0 15.343 0H422.417C430.872 0 438 6.837 438 15.2413V113.736C438 122.137 430.872 129 422.417 129Z" fill="#A6A6A6"/>
<path d="M434.859 113.739C434.859 120.563 429.298 126.091 422.42 126.091H15.343C8.468 126.091 2.88756 120.563 2.88756 113.739V15.238C2.88756 8.41712 8.468 2.87012 15.343 2.87012H422.417C429.298 2.87012 434.856 8.41712 434.856 15.238L434.859 113.739Z" fill="black"/>
<path d="M97.7486 63.8033C97.6545 53.4091 106.311 48.3523 106.707 48.1169C101.804 41.0122 94.2057 40.0415 91.5355 39.9641C85.1537 39.2965 78.9633 43.7599 75.7124 43.7599C72.3965 43.7599 67.3904 40.0286 61.9948 40.1382C55.0517 40.2446 48.5564 44.2404 44.994 50.4453C37.642 63.097 43.1252 81.6891 50.1688 91.9156C53.6923 96.924 57.8095 102.516 63.1985 102.319C68.4708 102.103 70.4401 98.9783 76.8025 98.9783C83.1065 98.9783 84.9558 102.319 90.4519 102.194C96.1102 102.103 99.6726 97.1627 103.073 92.1091C107.145 86.3686 108.78 80.7152 108.845 80.4249C108.712 80.3798 97.8557 76.2614 97.7486 63.8033Z" fill="white"/>
<path d="M87.3664 33.2368C90.202 29.7119 92.1422 24.9163 91.6036 20.0498C87.4994 20.2304 82.3667 22.8717 79.411 26.3192C76.796 29.3572 74.46 34.3366 75.0635 39.0193C79.6738 39.3611 84.4075 36.7069 87.3664 33.2368Z" fill="white"/>
<path d="M174.048 101.6H166.68L162.644 88.9939H148.615L144.77 101.6H137.597L151.496 58.6821H160.081L174.048 101.6ZM161.427 83.7049L157.777 72.498C157.391 71.3532 156.668 68.6571 155.6 64.413H155.471C155.046 66.2383 154.361 68.9344 153.42 72.498L149.835 83.7049H161.427Z" fill="white"/>
<path d="M209.792 85.7464C209.792 91.0096 208.361 95.1698 205.5 98.2239C202.937 100.943 199.754 102.3 195.955 102.3C191.854 102.3 188.908 100.836 187.114 97.9079H186.984V114.21H180.067V80.8412C180.067 77.5323 179.979 74.1364 179.81 70.6534H185.894L186.28 75.5586H186.41C188.716 71.8628 192.217 70.0181 196.915 70.0181C200.588 70.0181 203.654 71.4596 206.107 74.346C208.566 77.2356 209.792 81.0347 209.792 85.7464ZM202.745 85.9979C202.745 82.9858 202.064 80.5025 200.695 78.5482C199.199 76.51 197.191 75.4909 194.673 75.4909C192.967 75.4909 191.416 76.0585 190.03 77.1776C188.642 78.3063 187.733 79.7801 187.308 81.6055C187.094 82.4569 186.987 83.1535 186.987 83.7017V88.8617C186.987 91.1128 187.681 93.0123 189.07 94.5635C190.459 96.1148 192.263 96.8888 194.482 96.8888C197.087 96.8888 199.115 95.889 200.565 93.896C202.019 91.8997 202.745 89.2681 202.745 85.9979Z" fill="white"/>
<path d="M245.601 85.7464C245.601 91.0096 244.17 95.1698 241.306 98.2239C238.746 100.943 235.563 102.3 231.764 102.3C227.663 102.3 224.717 100.836 222.926 97.9079H222.796V114.21H215.879V80.8412C215.879 77.5323 215.791 74.1364 215.623 70.6534H221.706L222.092 75.5586H222.222C224.525 71.8628 228.026 70.0181 232.727 70.0181C236.397 70.0181 239.463 71.4596 241.922 74.346C244.372 77.2356 245.601 81.0347 245.601 85.7464ZM238.554 85.9979C238.554 82.9858 237.87 80.5025 236.501 78.5482C235.005 76.51 233.003 75.4909 230.482 75.4909C228.772 75.4909 227.225 76.0585 225.836 77.1776C224.447 78.3063 223.542 79.7801 223.117 81.6055C222.906 82.4569 222.796 83.1535 222.796 83.7017V88.8617C222.796 91.1128 223.49 93.0123 224.872 94.5635C226.261 96.1115 228.065 96.8888 230.291 96.8888C232.896 96.8888 234.924 95.889 236.374 93.896C237.828 91.8997 238.554 89.2681 238.554 85.9979Z" fill="white"/>
<path d="M285.638 89.5647C285.638 93.2154 284.363 96.1856 281.803 98.4786C278.99 100.984 275.074 102.236 270.042 102.236C265.396 102.236 261.671 101.346 258.852 99.5622L260.454 93.8314C263.491 95.6567 266.823 96.5726 270.454 96.5726C273.059 96.5726 275.087 95.9857 276.543 94.8182C277.994 93.6508 278.717 92.0834 278.717 90.1291C278.717 88.3876 278.12 86.9202 276.923 85.7302C275.732 84.5401 273.744 83.434 270.966 82.4117C263.407 79.6091 259.63 75.5037 259.63 70.1051C259.63 66.5769 260.954 63.6841 263.605 61.433C266.246 59.1787 269.769 58.0532 274.175 58.0532C278.104 58.0532 281.368 58.7337 283.973 60.0914L282.244 65.6965C279.811 64.3807 277.059 63.7228 273.98 63.7228C271.547 63.7228 269.646 64.3194 268.283 65.5062C267.131 66.5672 266.554 67.8604 266.554 69.3923C266.554 71.0887 267.212 72.4915 268.536 73.5945C269.688 74.6136 271.781 75.7165 274.817 76.9066C278.532 78.3933 281.261 80.1316 283.016 82.1246C284.765 84.1112 285.638 86.5977 285.638 89.5647Z" fill="white"/>
<path d="M308.508 75.8134H300.883V90.8386C300.883 94.6603 302.226 96.5695 304.919 96.5695C306.156 96.5695 307.181 96.463 307.992 96.2502L308.183 101.471C306.821 101.978 305.026 102.233 302.804 102.233C300.072 102.233 297.937 101.404 296.396 99.7493C294.862 98.0917 294.089 95.3117 294.089 91.4062V75.8069H289.547V70.6469H294.089V64.9806L300.883 62.9424V70.6469H308.508V75.8134Z" fill="white"/>
<path d="M342.909 85.8719C342.909 90.6287 341.539 94.5342 338.808 97.5883C335.943 100.733 332.14 102.3 327.4 102.3C322.832 102.3 319.195 100.794 316.483 97.7818C313.77 94.7696 312.414 90.9674 312.414 86.3846C312.414 81.5891 313.809 77.661 316.609 74.6069C319.403 71.5496 323.173 70.021 327.913 70.021C332.481 70.021 336.157 71.5271 338.931 74.5424C341.585 77.4675 342.909 81.244 342.909 85.8719ZM335.732 86.0944C335.732 83.2403 335.119 80.7925 333.876 78.7511C332.426 76.2807 330.353 75.0488 327.666 75.0488C324.886 75.0488 322.774 76.2839 321.323 78.7511C320.081 80.7957 319.467 83.2822 319.467 86.2234C319.467 89.0775 320.081 91.5253 321.323 93.5635C322.819 96.0338 324.908 97.2658 327.605 97.2658C330.245 97.2658 332.319 96.008 333.814 93.499C335.089 91.4189 335.732 88.9453 335.732 86.0944Z" fill="white"/>
<path d="M365.393 76.7003C364.708 76.5745 363.978 76.51 363.212 76.51C360.779 76.51 358.897 77.4227 357.573 79.2512C356.422 80.8637 355.844 82.9019 355.844 85.3626V101.6H348.93L348.995 80.3993C348.995 76.8325 348.908 73.5849 348.736 70.6566H354.761L355.014 76.5777H355.205C355.935 74.5427 357.087 72.9044 358.664 71.6757C360.205 70.5695 361.869 70.0181 363.663 70.0181C364.302 70.0181 364.88 70.0632 365.393 70.1438V76.7003Z" fill="white"/>
<path d="M396.328 84.6627C396.328 85.8947 396.247 86.9331 396.075 87.7813H375.324C375.405 90.8386 376.407 93.1767 378.335 94.7892C380.083 96.2308 382.345 96.9532 385.122 96.9532C388.195 96.9532 390.998 96.4662 393.519 95.4891L394.602 100.262C391.656 101.539 388.178 102.174 384.165 102.174C379.337 102.174 375.548 100.762 372.79 97.9401C370.039 95.1182 368.66 91.3288 368.66 86.5752C368.66 81.9086 369.941 78.0225 372.508 74.9232C375.194 71.6144 378.825 69.96 383.393 69.96C387.88 69.96 391.277 71.6144 393.584 74.9232C395.41 77.5516 396.328 80.8024 396.328 84.6627ZM389.732 82.8793C389.778 80.8411 389.327 79.0803 388.389 77.5935C387.192 75.6811 385.352 74.7265 382.877 74.7265C380.616 74.7265 378.776 75.6585 377.371 77.529C376.219 79.0158 375.535 80.7992 375.324 82.8761L389.732 82.8793Z" fill="white"/>
<path d="M159.14 32.2788C159.14 36.0746 157.995 38.932 155.707 40.8508C153.589 42.6214 150.578 43.5082 146.678 43.5082C144.744 43.5082 143.09 43.4244 141.704 43.2567V22.5167C143.512 22.2265 145.458 22.0781 147.561 22.0781C151.275 22.0781 154.075 22.8811 155.964 24.4872C158.079 26.3029 159.14 28.899 159.14 32.2788ZM155.555 32.3723C155.555 29.9116 154.9 28.025 153.589 26.7092C152.278 25.3966 150.364 24.7387 147.843 24.7387C146.772 24.7387 145.86 24.8097 145.105 24.958V40.7251C145.523 40.7896 146.289 40.8186 147.402 40.8186C150.004 40.8186 152.012 40.0994 153.427 38.6611C154.841 37.2227 155.555 35.1265 155.555 32.3723Z" fill="white"/>
<path d="M178.149 35.5942C178.149 37.9324 177.478 39.848 176.134 41.3509C174.726 42.8956 172.861 43.6664 170.531 43.6664C168.286 43.6664 166.498 42.9279 165.165 41.4444C163.835 39.9641 163.17 38.0968 163.17 35.8458C163.17 33.4915 163.854 31.5598 165.23 30.0601C166.605 28.5605 168.455 27.8091 170.784 27.8091C173.029 27.8091 174.833 28.5476 176.199 30.0279C177.497 31.4662 178.149 33.3238 178.149 35.5942ZM174.622 35.7039C174.622 34.301 174.317 33.0981 173.711 32.0951C172.997 30.8825 171.982 30.2762 170.661 30.2762C169.295 30.2762 168.257 30.8825 167.543 32.0951C166.933 33.0981 166.631 34.3204 166.631 35.7652C166.631 37.168 166.936 38.371 167.543 39.3739C168.28 40.5865 169.305 41.1928 170.629 41.1928C171.926 41.1928 172.945 40.5769 173.678 39.3417C174.308 38.3194 174.622 37.1068 174.622 35.7039Z" fill="white"/>
<path d="M203.638 28.1187L198.852 43.3213H195.737L193.755 36.7197C193.252 35.0718 192.843 33.4335 192.525 31.8081H192.464C192.168 33.4786 191.76 35.1137 191.234 36.7197L189.128 43.3213H185.978L181.478 28.1187H184.972L186.702 35.3459C187.12 37.0551 187.464 38.6838 187.74 40.2253H187.801C188.054 38.9547 188.473 37.3357 189.063 35.3781L191.234 28.1219H194.005L196.084 35.2233C196.587 36.9552 196.996 38.6225 197.311 40.2285H197.405C197.635 38.6644 197.982 36.9971 198.443 35.2233L200.299 28.1219H203.638V28.1187Z" fill="white"/>
<path d="M221.265 43.3212H217.864V34.6137C217.864 31.9305 216.839 30.5889 214.782 30.5889C213.773 30.5889 212.959 30.9566 212.326 31.6951C211.7 32.4336 211.382 33.3044 211.382 34.3009V43.318H207.982V32.4627C207.982 31.1275 207.94 29.6795 207.859 28.1121H210.847L211.006 30.489H211.1C211.496 29.7504 212.086 29.1409 212.862 28.6539C213.783 28.0863 214.815 27.7993 215.944 27.7993C217.371 27.7993 218.559 28.2573 219.503 29.1764C220.677 30.3019 221.265 31.9821 221.265 34.2138V43.3212Z" fill="white"/>
<path d="M230.641 43.3214H227.244V21.1431H230.641V43.3214Z" fill="white"/>
<path d="M250.659 35.5942C250.659 37.9324 249.988 39.848 248.644 41.3509C247.236 42.8956 245.368 43.6664 243.041 43.6664C240.793 43.6664 239.005 42.9279 237.675 41.4444C236.345 39.9641 235.68 38.0968 235.68 35.8458C235.68 33.4915 236.364 31.5598 237.74 30.0601C239.116 28.5605 240.965 27.8091 243.291 27.8091C245.54 27.8091 247.34 28.5476 248.709 30.0279C250.007 31.4662 250.659 33.3238 250.659 35.5942ZM247.129 35.7039C247.129 34.301 246.824 33.0981 246.218 32.0951C245.507 30.8825 244.488 30.2762 243.171 30.2762C241.802 30.2762 240.764 30.8825 240.053 32.0951C239.443 33.0981 239.142 34.3204 239.142 35.7652C239.142 37.168 239.446 38.371 240.053 39.3739C240.79 40.5865 241.815 41.1928 243.139 41.1928C244.436 41.1928 245.452 40.5769 246.185 39.3417C246.818 38.3194 247.129 37.1068 247.129 35.7039Z" fill="white"/>
<path d="M267.115 43.3213H264.062L263.809 41.5702H263.715C262.67 42.9666 261.181 43.6664 259.247 43.6664C257.804 43.6664 256.636 43.2052 255.756 42.2893C254.958 41.4573 254.559 40.4221 254.559 39.1933C254.559 37.3357 255.338 35.92 256.905 34.9396C258.469 33.9592 260.668 33.4786 263.501 33.5012V33.2174C263.501 31.2147 262.443 30.2149 260.324 30.2149C258.816 30.2149 257.486 30.5923 256.337 31.3405L255.646 29.1217C257.067 28.2477 258.822 27.8091 260.892 27.8091C264.889 27.8091 266.894 29.9053 266.894 34.0978V39.6964C266.894 41.2154 266.969 42.4248 267.115 43.3213ZM263.585 38.0968V35.7523C259.835 35.6878 257.959 36.7101 257.959 38.816C257.959 39.6094 258.173 40.2028 258.611 40.5994C259.049 40.9961 259.607 41.1928 260.273 41.1928C261.019 41.1928 261.716 40.9574 262.352 40.4898C262.991 40.0189 263.384 39.4223 263.53 38.6902C263.566 38.5258 263.585 38.3258 263.585 38.0968Z" fill="white"/>
<path d="M286.436 43.3214H283.418L283.259 40.8801H283.165C282.202 42.7377 280.56 43.6665 278.253 43.6665C276.41 43.6665 274.876 42.9473 273.659 41.5089C272.442 40.0706 271.836 38.2033 271.836 35.9103C271.836 33.4497 272.494 31.4566 273.818 29.9344C275.1 28.5154 276.67 27.8059 278.539 27.8059C280.593 27.8059 282.03 28.4928 282.847 29.8699H282.912V21.1431H286.316V39.2256C286.316 40.7059 286.355 42.0701 286.436 43.3214ZM282.912 36.9101V34.3752C282.912 33.9366 282.88 33.5819 282.818 33.311C282.627 32.4983 282.215 31.8146 281.589 31.2631C280.956 30.7116 280.193 30.4343 279.314 30.4343C278.046 30.4343 277.053 30.9342 276.323 31.9371C275.599 32.9401 275.233 34.2204 275.233 35.7846C275.233 37.2874 275.58 38.5065 276.277 39.4449C277.014 40.4447 278.007 40.9446 279.249 40.9446C280.365 40.9446 281.258 40.5285 281.936 39.6933C282.591 38.9225 282.912 37.9937 282.912 36.9101Z" fill="white"/>
<path d="M315.516 35.5942C315.516 37.9324 314.844 39.848 313.501 41.3509C312.093 42.8956 310.231 43.6664 307.898 43.6664C305.656 43.6664 303.868 42.9279 302.531 41.4444C301.201 39.9641 300.536 38.0968 300.536 35.8458C300.536 33.4915 301.221 31.5598 302.596 30.0601C303.972 28.5605 305.821 27.8091 308.154 27.8091C310.396 27.8091 312.203 28.5476 313.566 30.0279C314.864 31.4662 315.516 33.3238 315.516 35.5942ZM311.992 35.7039C311.992 34.301 311.687 33.0981 311.081 32.0951C310.364 30.8825 309.351 30.2762 308.028 30.2762C306.665 30.2762 305.627 30.8825 304.91 32.0951C304.3 33.0981 303.998 34.3204 303.998 35.7652C303.998 37.168 304.303 38.371 304.91 39.3739C305.646 40.5865 306.671 41.1928 307.995 41.1928C309.293 41.1928 310.315 40.5769 311.048 39.3417C311.674 38.3194 311.992 37.1068 311.992 35.7039Z" fill="white"/>
<path d="M333.798 43.3212H330.401V34.6137C330.401 31.9305 329.376 30.5889 327.316 30.5889C326.307 30.5889 325.492 30.9566 324.863 31.6951C324.234 32.4336 323.919 33.3044 323.919 34.3009V43.318H320.515V32.4627C320.515 31.1275 320.476 29.6795 320.395 28.1121H323.38L323.539 30.489H323.633C324.032 29.7504 324.623 29.1409 325.395 28.6539C326.32 28.0863 327.348 27.7993 328.481 27.7993C329.905 27.7993 331.092 28.2573 332.036 29.1764C333.214 30.3019 333.798 31.9821 333.798 34.2138V43.3212Z" fill="white"/>
<path d="M356.681 30.6503H352.937V38.0355C352.937 39.9125 353.602 40.851 354.92 40.851C355.529 40.851 356.036 40.7994 356.435 40.6929L356.522 43.2568C355.851 43.5084 354.968 43.6341 353.881 43.6341C352.538 43.6341 351.493 43.2278 350.737 42.4151C349.978 41.6024 349.602 40.235 349.602 38.3161V30.6503H347.366V28.1187H349.602V25.3323L352.934 24.3325V28.1154H356.678L356.681 30.6503Z" fill="white"/>
<path d="M374.681 43.3214H371.278V34.6784C371.278 31.9533 370.253 30.5891 368.199 30.5891C366.622 30.5891 365.545 31.3792 364.955 32.9595C364.854 33.2916 364.796 33.698 364.796 34.1753V43.3182H361.399V21.1431H364.796V30.3053H364.861C365.931 28.638 367.466 27.8059 369.455 27.8059C370.863 27.8059 372.027 28.2639 372.952 29.183C374.104 30.3279 374.681 32.0307 374.681 34.2817V43.3214Z" fill="white"/>
<path d="M393.249 35.001C393.249 35.6073 393.204 36.1169 393.123 36.5329H382.926C382.971 38.0358 383.458 39.1806 384.402 39.974C385.265 40.6835 386.378 41.0382 387.74 41.0382C389.249 41.0382 390.625 40.7996 391.864 40.3191L392.396 42.6669C390.946 43.2925 389.239 43.6053 387.263 43.6053C384.895 43.6053 383.029 42.912 381.68 41.5252C380.324 40.1385 379.652 38.2776 379.652 35.9427C379.652 33.6498 380.278 31.7406 381.54 30.2184C382.857 28.593 384.639 27.7803 386.887 27.7803C389.087 27.7803 390.758 28.593 391.887 30.2184C392.798 31.5084 393.249 33.1047 393.249 35.001ZM390.005 34.1271C390.031 33.1241 389.807 32.2598 389.346 31.5309C388.756 30.5925 387.857 30.1216 386.64 30.1216C385.531 30.1216 384.626 30.5796 383.935 31.4987C383.37 32.2308 383.036 33.1047 382.926 34.1271H390.005Z" fill="white"/>
</g>
<defs>
<clipPath id="clip0_28_626">
<rect width="438" height="129" fill="white"/>
</clipPath>
</defs>
</svg>
