<svg width="437" height="129" viewBox="0 0 437 129" fill="none" xmlns="http://www.w3.org/2000/svg">
<g clip-path="url(#clip0_28_591)">
<mask id="mask0_28_591" style="mask-type:luminance" maskUnits="userSpaceOnUse" x="0" y="0" width="437" height="129">
<path d="M0 -1.60479e-06H437V129H0V-1.60479e-06Z" fill="white"/>
</mask>
<g mask="url(#mask0_28_591)">
<path d="M420.815 128.999H16.1854C7.28342 128.999 0 121.743 0 112.874V16.124C0 7.25471 7.28342 -0.0011098 16.1854 -0.0011098H420.815C429.716 -0.0011098 437 7.25471 437 16.124V112.874C437 121.743 429.716 128.999 420.815 128.999Z" fill="#100F0D"/>
<path d="M420.815 -1.60479e-06H16.1854C7.28342 -1.60479e-06 0 7.25649 0 16.1251V112.875C0 121.744 7.28342 129 16.1854 129H420.815C429.716 129 437 121.744 437 112.875V16.1251C437 7.25649 429.716 -1.60479e-06 420.815 -1.60479e-06ZM420.815 2.57991C428.312 2.57991 434.411 8.65563 434.411 16.1251V112.875C434.411 120.344 428.312 126.42 420.815 126.42H16.1854C8.68818 126.42 2.58988 120.344 2.58988 112.875V16.1251C2.58988 8.65563 8.68818 2.57991 16.1854 2.57991H420.815Z" fill="#A2A2A1"/>
<path d="M346.156 96.75H352.196V56.4345H346.156V96.75ZM400.561 70.9563L393.637 88.436H393.429L386.243 70.9563H379.737L390.513 95.386L384.369 108.976H390.668L407.278 70.9563H400.561ZM366.307 92.1704C364.325 92.1704 361.567 91.1838 361.567 88.7462C361.567 85.6336 365.002 84.4434 367.97 84.4434C370.625 84.4434 371.874 85.0144 373.49 85.7913C373.02 89.5265 369.793 92.1704 366.307 92.1704ZM367.035 70.0761C362.661 70.0761 358.13 71.9949 356.256 76.2455L361.619 78.4777C362.765 76.2455 364.898 75.5197 367.138 75.5197C370.262 75.5197 373.437 77.3872 373.49 80.7058V81.1216C372.396 80.4995 370.052 79.5674 367.19 79.5674C361.412 79.5674 355.527 82.7311 355.527 88.6422C355.527 94.038 360.266 97.5116 365.575 97.5116C369.637 97.5116 371.874 95.6987 373.283 93.5703H373.49V96.6826H379.319V81.2247C379.319 74.0686 373.959 70.0761 367.035 70.0761ZM329.705 75.8647H321.114V62.0426H329.705C334.221 62.0426 336.784 65.7709 336.784 68.954C336.784 72.0791 334.221 75.8647 329.705 75.8647ZM329.55 56.4345H315.077V96.75H321.114V81.4766H329.55C336.244 81.4766 342.825 76.6452 342.825 68.954C342.825 61.2621 336.244 56.4345 329.55 56.4345ZM250.628 92.1773C246.455 92.1773 242.963 88.6975 242.963 83.9179C242.963 79.0869 246.455 75.552 250.628 75.552C254.748 75.552 257.979 79.0869 257.979 83.9179C257.979 88.6975 254.748 92.1773 250.628 92.1773ZM257.561 73.2141H257.354C255.998 71.6047 253.392 70.1469 250.107 70.1469C243.221 70.1469 236.912 76.1747 236.912 83.9179C236.912 91.6063 243.221 97.5824 250.107 97.5824C253.392 97.5824 255.998 96.1278 257.354 94.4641H257.561V96.4372C257.561 101.687 254.748 104.49 250.21 104.49C246.507 104.49 244.212 101.842 243.273 99.6074L238.006 101.791C239.518 105.428 243.535 109.896 250.21 109.896C257.302 109.896 263.301 105.739 263.301 95.6082V70.9792H257.561V73.2141ZM267.47 96.75H273.52V56.4312H267.47V96.75ZM282.438 83.4501C282.283 78.1481 286.558 75.4489 289.634 75.4489C292.036 75.4489 294.069 76.6425 294.745 78.3577L282.438 83.4501ZM301.213 78.8773C300.063 75.8101 296.571 70.1469 289.427 70.1469C282.334 70.1469 276.443 75.707 276.443 83.8666C276.443 91.5544 282.283 97.5824 290.104 97.5824C296.416 97.5824 300.063 93.7379 301.579 91.5034L296.885 88.3847C295.318 90.6709 293.182 92.1773 290.104 92.1773C287.028 92.1773 284.837 90.7741 283.428 88.0235L301.838 80.4348L301.213 78.8773ZM154.549 74.3591V80.1767H168.524C168.106 83.4501 167.012 85.84 165.345 87.5007C163.309 89.5291 160.127 91.7613 154.549 91.7613C145.942 91.7613 139.216 84.8533 139.216 76.2779C139.216 67.7058 145.942 60.7977 154.549 60.7977C159.191 60.7977 162.58 62.6134 165.082 64.9513L169.203 60.8496C165.708 57.5243 161.068 54.9768 154.549 54.9768C142.763 54.9768 132.855 64.5389 132.855 76.2779C132.855 88.0235 142.763 97.5824 154.549 97.5824C160.91 97.5824 165.708 95.5018 169.462 91.6063C173.321 87.7621 174.522 82.3605 174.522 77.9938C174.522 76.6425 174.418 75.3977 174.207 74.3591H154.549ZM190.409 92.1773C186.24 92.1773 182.64 88.7488 182.64 83.8666C182.64 78.9285 186.24 75.552 190.409 75.552C194.581 75.552 198.181 78.9285 198.181 83.8666C198.181 88.7488 194.581 92.1773 190.409 92.1773ZM190.409 70.1469C182.795 70.1469 176.59 75.9166 176.59 83.8666C176.59 91.7614 182.795 97.5824 190.409 97.5824C198.023 97.5824 204.231 91.7614 204.231 83.8666C204.231 75.9166 198.023 70.1469 190.409 70.1469ZM220.558 92.1773C216.387 92.1773 212.787 88.7488 212.787 83.8666C212.787 78.9285 216.387 75.552 220.558 75.552C224.732 75.552 228.328 78.9285 228.328 83.8666C228.328 88.7488 224.732 92.1773 220.558 92.1773ZM220.558 70.1469C212.945 70.1469 206.74 75.9166 206.74 83.8666C206.74 91.7614 212.945 97.5824 220.558 97.5824C228.172 97.5824 234.377 91.7614 234.377 83.8666C234.377 75.9166 228.172 70.1469 220.558 70.1469Z" fill="white"/>
<path d="M67.0623 62.6423L32.5977 99.0853C32.6009 99.0914 32.6009 99.1013 32.6043 99.1074C33.6626 103.065 37.2881 105.977 41.5934 105.977C43.3155 105.977 44.9308 105.513 46.3163 104.7L46.4263 104.635L85.2191 82.3346L67.0623 62.6423Z" fill="#EB3131"/>
<path d="M101.929 56.4371L101.896 56.4142L85.1473 46.7423L66.2788 63.4706L85.215 82.3306L101.873 72.7557C104.793 71.1813 106.777 68.1148 106.777 64.5799C106.777 61.0645 104.822 58.0142 101.929 56.4371Z" fill="#F6B60B"/>
<path d="M32.5971 29.9185C32.3897 30.6794 32.2798 31.4794 32.2798 32.305V96.7021C32.2798 97.5277 32.3897 98.3272 32.6003 99.0854L68.2464 63.5745L32.5971 29.9185Z" fill="#5778C5"/>
<path d="M67.317 64.5029L85.1528 46.7361L46.4056 24.3546C44.9975 23.5129 43.353 23.029 41.5953 23.029C37.2902 23.029 33.6581 25.9479 32.5995 29.908C32.5995 29.9114 32.5963 29.9148 32.5963 29.9182L67.317 64.5029Z" fill="#3BAD49"/>
</g>
<mask id="mask1_28_591" style="mask-type:luminance" maskUnits="userSpaceOnUse" x="0" y="-1" width="437" height="130">
<path d="M0 -0.00067622H437V129H0V-0.00067622Z" fill="white"/>
</mask>
<g mask="url(#mask1_28_591)">
<path d="M141.623 39.4367C143.913 39.4367 145.692 38.8059 146.959 37.5436C148.226 36.2806 148.86 34.5371 148.86 32.311C148.86 30.0849 148.226 28.34 146.959 27.0777C145.692 25.8154 143.913 25.1839 141.623 25.1839H138.355V39.4367H141.623ZM135.258 22.2657H141.707C143.791 22.2657 145.608 22.6869 147.156 23.5287C148.705 24.3704 149.897 25.5532 150.733 27.0777C151.569 28.6029 151.986 30.3464 151.986 32.311C151.986 34.2749 151.569 36.0191 150.733 37.5436C149.897 39.0681 148.705 40.2509 147.156 41.0927C145.608 41.9344 143.791 42.355 141.707 42.355H135.258V22.2657Z" fill="white"/>
<path d="M156.013 22.2657H159.111V42.355H156.013V22.2657Z" fill="white"/>
<path d="M165.588 41.3453C164.255 40.3727 163.326 39.0073 162.8 37.249L165.729 36.0702C166.03 37.1924 166.565 38.1096 167.334 38.82C168.104 39.531 169.033 39.8862 170.122 39.8862C171.136 39.8862 171.995 39.6247 172.699 39.1003C173.403 38.5767 173.755 37.8569 173.755 36.9403C173.755 36.0985 173.445 35.4016 172.825 34.8497C172.206 34.2977 171.136 33.7599 169.615 33.2362L168.348 32.7874C166.977 32.3014 165.837 31.6228 164.926 30.7534C164.016 29.8833 163.56 28.7288 163.56 27.2879C163.56 26.2972 163.828 25.3799 164.363 24.5388C164.899 23.697 165.649 23.0332 166.616 22.5466C167.583 22.06 168.677 21.8167 169.897 21.8167C171.643 21.8167 173.042 22.2426 174.093 23.0932C175.144 23.9451 175.858 24.9034 176.234 25.9696L173.445 27.1484C173.258 26.4744 172.863 25.8948 172.263 25.4082C171.662 24.9223 170.883 24.679 169.925 24.679C169.005 24.679 168.226 24.9223 167.587 25.4082C166.95 25.8948 166.63 26.5122 166.63 27.2602C166.63 27.9524 166.916 28.5273 167.489 28.9856C168.061 29.4445 168.949 29.8786 170.15 30.2904L171.445 30.7392C173.173 31.3384 174.506 32.1141 175.445 33.0677C176.384 34.0221 176.853 35.2945 176.853 36.8837C176.853 38.1932 176.52 39.2924 175.853 40.1807C175.187 41.0696 174.333 41.7281 173.291 42.1587C172.248 42.5887 171.183 42.8037 170.094 42.8037C168.423 42.8037 166.921 42.3178 165.588 41.3453Z" fill="white"/>
<path d="M187.921 31.637C188.953 31.637 189.784 31.3149 190.413 30.6692C191.042 30.0236 191.357 29.2715 191.357 28.4108C191.357 27.5502 191.042 26.7974 190.413 26.1517C189.784 25.5067 188.953 25.1839 187.921 25.1839H184.006V31.637H187.921ZM180.909 22.2657H187.836C189.038 22.2657 190.14 22.5278 191.146 23.0515C192.149 23.5758 192.948 24.3051 193.54 25.2398C194.131 26.176 194.426 27.2327 194.426 28.4108C194.426 29.5889 194.131 30.6457 193.54 31.5811C192.948 32.5166 192.149 33.2465 191.146 33.7694C190.14 34.2931 189.038 34.5553 187.836 34.5553H184.006V42.355H180.909V22.2657Z" fill="white"/>
<path d="M211.196 38.9184C212.314 38.2727 213.196 37.375 213.843 36.2245C214.491 35.0741 214.815 33.7693 214.815 32.3109C214.815 30.8511 214.491 29.547 213.843 28.3965C213.196 27.2461 212.314 26.3484 211.196 25.7027C210.079 25.0578 208.845 24.7349 207.493 24.7349C206.141 24.7349 204.906 25.0578 203.789 25.7027C202.673 26.3484 201.791 27.2461 201.142 28.3965C200.495 29.547 200.17 30.8511 200.17 32.3109C200.17 33.7693 200.495 35.0741 201.142 36.2245C201.791 37.375 202.673 38.2727 203.789 38.9184C204.906 39.5633 206.141 39.8862 207.493 39.8862C208.845 39.8862 210.079 39.5633 211.196 38.9184ZM202.17 41.4012C200.574 40.4658 199.321 39.1987 198.411 37.5994C197.5 35.9994 197.044 34.237 197.044 32.3109C197.044 30.384 197.5 28.621 198.411 27.0217C199.321 25.4224 200.574 24.1553 202.17 23.2199C203.766 22.2844 205.54 21.8167 207.493 21.8167C209.445 21.8167 211.214 22.2844 212.801 23.2199C214.388 24.1553 215.637 25.4224 216.547 27.0217C217.458 28.621 217.913 30.384 217.913 32.3109C217.913 34.237 217.458 35.9994 216.547 37.5994C215.637 39.1987 214.388 40.4658 212.801 41.4012C211.214 42.3367 209.445 42.8037 207.493 42.8037C205.54 42.8037 203.766 42.3367 202.17 41.4012Z" fill="white"/>
<path d="M221.911 22.2657H225.573L234.697 37.0246H234.866L234.697 33.1521V22.2657H237.767V42.355H234.556L224.981 26.8391H224.812L224.981 30.7117V42.355H221.911V22.2657Z" fill="white"/>
<path d="M242.864 22.2657H245.962V42.355H242.864V22.2657Z" fill="white"/>
<path d="M258.917 39.4934C259.893 39.4934 260.677 39.1988 261.268 38.6098C261.86 38.0201 262.155 37.3145 262.155 36.4916C262.155 35.668 261.85 34.9576 261.241 34.3592C260.63 33.76 259.818 33.4608 258.804 33.4608H254.129V39.4934H258.917ZM258.438 30.7117C259.377 30.7117 260.128 30.4266 260.691 29.8551C261.254 29.2849 261.536 28.6258 261.536 27.8777C261.536 27.1296 261.258 26.4793 260.706 25.9273C260.151 25.376 259.433 25.0997 258.55 25.0997H254.129V30.7117H258.438ZM251.031 22.2657H258.579C259.649 22.2657 260.644 22.5002 261.564 22.9673C262.484 23.435 263.212 24.0759 263.747 24.8894C264.282 25.7029 264.549 26.6059 264.549 27.5973C264.549 28.5887 264.3 29.4534 263.803 30.1921C263.305 30.9314 262.644 31.4969 261.817 31.8898V32.03C262.869 32.3858 263.704 32.9748 264.324 33.7977C264.943 34.6206 265.253 35.5932 265.253 36.716C265.253 37.8192 264.967 38.7965 264.394 39.6477C263.821 40.4989 263.052 41.1628 262.085 41.6399C261.118 42.1164 260.062 42.355 258.917 42.355H251.031V22.2657Z" fill="white"/>
<path d="M269.336 22.2657H272.434V39.4367H281.108V42.355H269.336V22.2657Z" fill="white"/>
<path d="M284.375 22.2657H296.598V25.1839H287.473V30.8512H295.696V33.7694H287.473V39.4367H296.598V42.355H284.375V22.2657Z" fill="white"/>
<path d="M308.397 41.3453C307.064 40.3727 306.134 39.0073 305.609 37.249L308.538 36.0702C308.838 37.1924 309.373 38.1096 310.143 38.82C310.912 39.531 311.841 39.8862 312.931 39.8862C313.945 39.8862 314.804 39.6247 315.507 39.1003C316.211 38.5767 316.564 37.8569 316.564 36.9403C316.564 36.0985 316.254 35.4016 315.634 34.8497C315.015 34.2977 313.945 33.7599 312.424 33.2362L311.157 32.7874C309.786 32.3014 308.646 31.6228 307.735 30.7534C306.824 29.8833 306.369 28.7288 306.369 27.2879C306.369 26.2972 306.637 25.3799 307.172 24.5388C307.707 23.697 308.457 23.0332 309.424 22.5466C310.392 22.06 311.485 21.8167 312.706 21.8167C314.452 21.8167 315.85 22.2426 316.902 23.0932C317.953 23.9451 318.666 24.9034 319.042 25.9696L316.254 27.1484C316.067 26.4744 315.672 25.8948 315.072 25.4082C314.47 24.9223 313.692 24.679 312.734 24.679C311.814 24.679 311.034 24.9223 310.397 25.4082C309.758 25.8948 309.439 26.5122 309.439 27.2602C309.439 27.9524 309.725 28.5273 310.298 28.9856C310.87 29.4445 311.757 29.8786 312.959 30.2904L314.254 30.7392C315.982 31.3384 317.314 32.1141 318.254 33.0677C319.193 34.0221 319.661 35.2945 319.661 36.8837C319.661 38.1932 319.329 39.2924 318.662 40.1807C317.995 41.0696 317.141 41.7281 316.099 42.1587C315.057 42.5887 313.991 42.8037 312.903 42.8037C311.231 42.8037 309.73 42.3178 308.397 41.3453Z" fill="white"/>
<path d="M326.885 41.7941C325.731 41.1208 324.838 40.1665 324.21 38.9318C323.58 37.6978 323.266 36.2663 323.266 34.6394V22.2655H326.335V34.8079C326.335 36.3229 326.73 37.5475 327.519 38.483C328.307 39.4191 329.424 39.8862 330.87 39.8862C332.334 39.8862 333.461 39.4191 334.249 38.483C335.038 37.5475 335.432 36.3229 335.432 34.8079V22.2655H338.503V34.6394C338.503 36.2481 338.193 37.6695 337.573 38.9042C336.953 40.1382 336.071 41.0973 334.925 41.78C333.78 42.4627 332.428 42.8037 330.87 42.8037C329.368 42.8037 328.04 42.4674 326.885 41.7941Z" fill="white"/>
<path d="M350.301 31.637C351.278 31.637 352.099 31.329 352.766 30.7117C353.432 30.0944 353.766 29.318 353.766 28.3825C353.766 27.5225 353.461 26.769 352.85 26.1241C352.24 25.4784 351.428 25.1556 350.414 25.1556H346.415V31.637H350.301ZM343.318 22.2657H350.386C351.606 22.2657 352.71 22.5278 353.695 23.0515C354.681 23.5758 355.46 24.3051 356.033 25.2398C356.605 26.176 356.892 27.2327 356.892 28.4108C356.892 29.7574 356.455 30.9503 355.583 31.9875C354.709 33.0261 353.615 33.7229 352.301 34.0781L352.273 34.2183L357.821 42.1865V42.355H354.245L348.865 34.471H346.415V42.355H343.318V22.2657Z" fill="white"/>
</g>
</g>
<defs>
<clipPath id="clip0_28_591">
<rect width="437" height="129" fill="white"/>
</clipPath>
</defs>
</svg>
