<svg xmlns="http://www.w3.org/2000/svg" viewBox="0 0 558.69 171.1"><defs><style>.cls-1{fill:#fff;}.cls-2{fill:#cbb899;}</style></defs><g id="Calque_2" data-name="Calque 2"><g id="Calque_3" data-name="Calque 3"><rect class="cls-1" x="33.37" y="125.56" width="38.52" height="14.2"/><path class="cls-1" d="M90.88,60.71c-4.45-2.26-8.73-1.33-12.68,1.48-.82.58-1.6,1.23-2.46,1.73a6.72,6.72,0,0,1-3.84,1V4.08A28.64,28.64,0,0,0,50.66,51.41l-3,2.73a33.18,33.18,0,0,1-7.57-27.51,26.78,26.78,0,0,0-13.76-.33A28.81,28.81,0,0,0,4.62,60C7,72.33,17.87,82.05,30.11,82.67c2.72.14,3.17.61,3.17,3.32q0,16.73,0,33.46v1.81H71.9V79.35a6.49,6.49,0,0,1,1.5.09,12.75,12.75,0,0,1,4.79,2.47,12.07,12.07,0,0,0,10.54,2.2c5.43-1.41,8.55-6,8.57-12.2C97.32,66.92,95.35,63,90.88,60.71Zm-37.31,47.9H49.7V82.21h3.87Z"/><rect class="cls-1" x="104.14" y="125.56" width="39.49" height="14.2"/><path class="cls-1" d="M146.11,25.65a24.11,24.11,0,0,0-9.21.87c1.15,11.12-1.7,21.94-7,26.62l-3-2.42a28.86,28.86,0,0,0-4.33-40.31,28.56,28.56,0,0,0-18.48-6.33V62a4,4,0,0,0,2.42-.72c1.27-.8,2.42-1.8,3.67-2.63,7.11-4.69,15.94-2.93,20.3,4.27a16.9,16.9,0,0,1,.87,16.61A14.61,14.61,0,0,1,127.14,85v23.57h-3.93V87.14a15.07,15.07,0,0,1-7,.61c-3.29-.46-5.94-2.16-8.45-4.17-1.09-.87-2.27-1.74-3.63-1.52v39.21h39.57V85.7c0-2.32.58-2.9,2.87-3,13.7-.72,25.32-12.32,26.13-26.07A28.84,28.84,0,0,0,146.11,25.65Z"/><path class="cls-2" d="M50.66,51.41l-3,2.73a33.18,33.18,0,0,1-7.57-27.51,26.78,26.78,0,0,0-13.76-.33A28.81,28.81,0,0,0,4.62,60C7,72.33,17.87,82.05,30.11,82.67c2.72.14,3.17.61,3.17,3.32q0,16.73,0,33.46v1.81H71.9v4.3H33.37v14.2H71.9V144H32.41c-2.82,0-3.22-.41-3.22-3.3V89.06c0-2.22,0-2.22-2.21-2.58A32.26,32.26,0,0,1,.33,59,32.84,32.84,0,0,1,24.76,22.46,32.3,32.3,0,0,1,41,22.5C46.75,8.47,56.72.2,71.9,0V4.08A28.64,28.64,0,0,0,50.66,51.41Z"/><rect class="cls-2" x="49.7" y="82.21" width="3.87" height="26.41"/><path class="cls-2" d="M176.26,48a31.41,31.41,0,0,0-11.07-18.84c-8.63-7.14-18.53-9.16-29.27-6.81C130,8.05,119.71-.2,104.14,0V4.08a28.56,28.56,0,0,1,18.48,6.33A28.86,28.86,0,0,1,127,50.72l3,2.42c5.29-4.68,8.14-15.5,7-26.62a24.11,24.11,0,0,1,9.21-.87,28.84,28.84,0,0,1,26.6,31C171.9,70.36,160.28,82,146.58,82.68c-2.29.12-2.86.7-2.87,3v35.57H104.14v4.29h39.49v14.2H104.14V144h40.52c2.71,0,3.15-.45,3.15-3.21v-54c9.46-1.21,17.19-5.43,22.81-13.11A31.85,31.85,0,0,0,176.26,48Z"/><path class="cls-2" d="M123.21,87.14v21.44h3.93V85A13.75,13.75,0,0,1,123.21,87.14Z"/><path class="cls-1" d="M256.06,93.3q0,24,2.65,24t7.13-6.1a87.3,87.3,0,0,0,8.82-15.73q4.33-9.63,5.3-9.63c.63,0,1,.39,1,1.17q0,4.13-5,15-10.73,22.8-19.26,22.79a20.34,20.34,0,0,1-5.88-.8,7.38,7.38,0,0,1-3.24-1.55q-1.47-1.77-1.47-12.94,0-26.48,1.77-42.94a115.6,115.6,0,0,0-15.59,19.12A81.88,81.88,0,0,1,235.33,106q0,8.61-3.31,13.31T223.71,124q-6,0-6-11.62,0-7.94,6.32-21a91.59,91.59,0,0,0-8.53-20.14,177.24,177.24,0,0,1-7.2,27.35q-4.86,14-10,20.81t-12.21,6.83q-5.15,0-5.14-4,0-3.22,2.2-4.55a17.05,17.05,0,0,1,5.22-2,8.66,8.66,0,0,0,3.9-1.54q5.73-6,10.81-20.59a167.92,167.92,0,0,0,7.42-29.85q-6.32-8.23-6.32-12.28a12.22,12.22,0,0,1,2.13-7.13q2.13-3.09,7-3.09,1.47,0,2.5,3.75a29.84,29.84,0,0,1,1,7.87,109.81,109.81,0,0,1,13.67,27.05,158,158,0,0,1,18.83-25q4.55-27.78,10.58-27.79c1.38,0,2.82,1,4.34,3.09a10.55,10.55,0,0,1,2.28,6.32q0,10-8.67,20.3Q256.06,69.34,256.06,93.3Zm-30.59,4.42c-2.35,5.19-3.53,9.83-3.53,13.89s.49,6.11,1.48,6.11,1.71-1.2,2.2-3.61a37.75,37.75,0,0,0,.74-7.57A49.49,49.49,0,0,0,225.47,97.72Z"/><path class="cls-1" d="M318,124.77q-5.75,0-8.68-2.35c-.69-.68-1-2.43-1-5.22s.1-6.54.3-11.25q-3.82,9.55-7.58,14.19a11.83,11.83,0,0,1-9.63,4.63q-5.88,0-10.29-5.51t-4.41-17.35a34.45,34.45,0,0,1,6.69-21q6.69-9.12,17.57-9.12,4.71,0,10.59,6.18a21,21,0,0,1,4.19-3.9c2-1.51,3.72-2.28,5.15-2.28S323,73.7,323,77.42a38.31,38.31,0,0,1-.81,5.74,22.77,22.77,0,0,1-1.84,6.17q-1.32,3.39-1.32,24c0,2.65.29,4,.88,4q2.5-.13,6.91-6.25a90.85,90.85,0,0,0,8.75-15.66q4.33-9.56,5.29-9.55t1,1.17q0,4.13-4.26,13.09Q325.9,124.78,318,124.77ZM300,77.72q-4.12,0-8.75,6.1a23,23,0,0,0-4.63,14.34q0,8.24,2.42,13.53c1.62,3.52,3.75,5.29,6.4,5.29q4.84,0,14.26-24.26c.1-.79.22-2.14.37-4s.27-3.35.37-4.34a13.65,13.65,0,0,0-4.63-4.48A11.21,11.21,0,0,0,300,77.72Z"/><path class="cls-1" d="M330.25,56.84a4.76,4.76,0,0,1-2-4.27,5.37,5.37,0,0,1,2.72-4.7,9.47,9.47,0,0,1,5.07-1.77,6.12,6.12,0,0,1,4,1.32,4.08,4.08,0,0,1,1.61,3.24q0,7.5-7.5,7.5A7,7,0,0,1,330.25,56.84Zm12.42,67.93q-5.73,0-8.67-2.35c-.69-.68-1-3.14-1-7.35s.31-11.25.95-21.1,1.2-15.17,1.69-16a28,28,0,0,1,4.56-4.41q3.82-3.24,6-3.24c1.42,0,2.13,1.87,2.13,5.59a38.83,38.83,0,0,1-.81,5.59,25.5,25.5,0,0,1-1.84,6.32Q343.7,92,343.7,113.3c0,2.65.3,4,.88,4q2.51-.13,6.92-6.25a90.88,90.88,0,0,0,8.74-15.66q4.35-9.56,5.3-9.55c.64,0,.95.39.95,1.17q0,4.13-4.26,13.09Q350.61,124.78,342.67,124.77ZM350,56.84a4.77,4.77,0,0,1-2-4.27,5.34,5.34,0,0,1,2.79-4.7,9.79,9.79,0,0,1,5.15-1.77,5.78,5.78,0,0,1,3.89,1.32,4.14,4.14,0,0,1,1.55,3.24q0,7.5-7.35,7.5A7.22,7.22,0,0,1,350,56.84Z"/><path class="cls-2" d="M419,99.78a52.08,52.08,0,0,0,2.94-5.15q4.71-8.38,5.66-8.38t1,1.17q0,7.22-7.5,18.24-13.53,19.85-36,19.85a23.53,23.53,0,0,1-11.62-2.94,24,24,0,0,1-8.38-7.5,34,34,0,0,1-6.32-19.41q0-25.59,13.31-41.25t31.54-15.66a16.11,16.11,0,0,1,11.32,4A13.27,13.27,0,0,1,419.28,53a22.35,22.35,0,0,1-3.08,11.47q-3.09,5.3-7.43,5.3t-4.34-2.36q0-2.64,2.87-6a10.48,10.48,0,0,0,2.87-6.76q0-10.44-11.11-10.44T379,59q-9,14.85-9,30.59A32,32,0,0,0,376.2,109q6.18,8.44,17.35,8.45Q406.78,117.42,419,99.78Z"/><path class="cls-2" d="M431.49,116.1l.14,4.56q0,4.11-2.35,4.11a23.6,23.6,0,0,1-6.76-1c-2.16-.64-3.24-1.52-3.24-2.65s.27-5,.81-11.62.81-11.59.81-14.92V86.1q0-37.65,13.38-47.94a10.35,10.35,0,0,1,6.33-2.35c1,0,2,1.08,2.94,3.23A20.41,20.41,0,0,1,445,47.42a65.12,65.12,0,0,1-4.27,23.68q-4.26,11-8.67,16.91c-.1,2.45-.15,6.28-.15,11.47q.58-.89,6.18-10a91.51,91.51,0,0,1,9.48-13.38c2.6-2.84,4.93-4.27,7-4.27a8.31,8.31,0,0,1,5.51,2.06A6.49,6.49,0,0,1,462.52,79a188.19,188.19,0,0,1-1.4,19q-1.39,12.58-1.4,15.88c0,2.21.3,3.31.88,3.31q2.5-.13,6.92-6.25a91.53,91.53,0,0,0,8.75-15.66q4.34-9.56,5.29-9.55t1,1.17q0,4.13-4.27,13.09-11.61,24.71-19.56,24.7-5.73,0-8.67-2.35-1-1-1-5.37t.81-14.11q.79-9.78.8-14.63t-1.69-4.86q-1.68,0-8.89,10.07t-7.65,12.87A57.4,57.4,0,0,0,431.49,116.1Zm9.56-65.44q0-6.18-1.62-6.18-2.65,0-5.15,16.33Q433,69.48,432.37,81,441,62.86,441.05,50.66Z"/><path class="cls-2" d="M491.78,124.77a15.71,15.71,0,0,1-13.09-6.25,22.53,22.53,0,0,1-4.85-14.19q0-16,6.76-24.26a21.6,21.6,0,0,1,17.5-8.24,12.35,12.35,0,0,1,8.24,2.73A9.2,9.2,0,0,1,509.57,82q0,8.82-7.42,14.78A29.46,29.46,0,0,1,484,103a18.9,18.9,0,0,0,3.9,9.93q3.31,4.19,7.72,4.19a15.48,15.48,0,0,0,7.94-2.06,22.48,22.48,0,0,0,6.47-5.88A85.68,85.68,0,0,0,520.6,90.81c.78-1.77,1.4-3,1.84-3.83s.93-1.17,1.47-1.17.81.39.81,1.17q0,7.35-9,22.06Q506,124.78,491.78,124.77ZM484,99.48q8.68-1.47,12.72-5.59a14.64,14.64,0,0,0,4.05-10.73q0-6.61-4.27-6.62-5.14,0-8.67,7.13A38.28,38.28,0,0,0,484,99.48Z"/><path class="cls-2" d="M538.83,93a54,54,0,0,0,13.31-4.85,60.55,60.55,0,0,1,5.66-2.94c.59,0,.89.49.89,1.47s-1,2.2-2.94,3.67a58.35,58.35,0,0,1-15.45,7.8A121.07,121.07,0,0,1,544.13,129,108.62,108.62,0,0,1,541,155.21a27.86,27.86,0,0,1-5.51,11.47,11.64,11.64,0,0,1-9.19,4.42,6.47,6.47,0,0,1-6.48-4.12,26.86,26.86,0,0,1-2.5-9.27q-.43-6.92-.44-22.5a362.93,362.93,0,0,1,2.36-37.64Q514,93.75,514,88.23t2.36-8.53a10.44,10.44,0,0,1,5.88-3.89q2.06-12.8,4-22.06a40.68,40.68,0,0,1,6.1-15.08q4.13-5.81,8.24-5.8,4.71,0,4.71,10.44,0,16.47-12.21,37.05A48.07,48.07,0,0,1,538.83,93Zm-17.2-13.53a3.18,3.18,0,0,0-2.21,3.38,8.46,8.46,0,0,0,1.18,4.56C521,83.89,521.34,81.25,521.63,79.48Zm6.91,20.88q-1.32,18.09-1.32,41.55t2.5,23.45q4.41,0,7.35-11.54A105.05,105.05,0,0,0,540,127.94a131.32,131.32,0,0,0-3.23-28.75A32.25,32.25,0,0,1,528.54,100.36Zm2.21-16.17-.89,1.47-.73,7.5a12,12,0,0,0,3.46.59,18.41,18.41,0,0,0,2.57-.15A38.66,38.66,0,0,0,530.75,84.19Zm0-5.89a96.11,96.11,0,0,0,7.79-16.69q3.53-9.61,3.53-16.1T540.75,39q-2.36,0-5.08,10.74A242.58,242.58,0,0,0,530.75,78.3Z"/></g></g></svg>