<svg xmlns="http://www.w3.org/2000/svg" viewBox="0 0 381.16 147.35"><defs><style>.cls-1{fill:#a9e4af;}.cls-2{fill:#cbb899;}.cls-3{fill:#fff;}</style></defs><g id="Calque_2" data-name="Calque 2"><g id="Calque_3" data-name="Calque 3"><path class="cls-1" d="M152.72,33.09a7,7,0,0,0,3.89,1.33q7.5,0,7.5-7.5a4.05,4.05,0,0,0-1.61-3.24,6.09,6.09,0,0,0-4-1.32,9.54,9.54,0,0,0-5.08,1.76,5.4,5.4,0,0,0-2.72,4.71A4.73,4.73,0,0,0,152.72,33.09Z"/><path class="cls-1" d="M172.42,33.09a7.18,7.18,0,0,0,4.05,1.33q7.35,0,7.35-7.5a4.11,4.11,0,0,0-1.55-3.24,5.75,5.75,0,0,0-3.89-1.32,9.86,9.86,0,0,0-5.15,1.76,5.37,5.37,0,0,0-2.79,4.71A4.74,4.74,0,0,0,172.42,33.09Z"/><path class="cls-1" d="M380.28,61.47a61.38,61.38,0,0,0-5.67,2.94,53.67,53.67,0,0,1-13.3,4.86,48.38,48.38,0,0,0-5.74-12.65Q367.78,36,367.78,19.56q0-10.44-4.71-10.44-4.12,0-8.23,5.81A40.7,40.7,0,0,0,348.73,30q-2,9.27-4,22.06a10.55,10.55,0,0,0-5.88,3.9q-2.35,3-2.36,8.53a10.75,10.75,0,0,0,4,8.26,82.51,82.51,0,0,1-7.93,12.69A22.67,22.67,0,0,1,326,91.33a15.48,15.48,0,0,1-7.94,2c-2.94,0-5.51-1.39-7.72-4.19a18.74,18.74,0,0,1-3.89-9.92Q317.19,79,324.62,73T332,58.24a9.22,9.22,0,0,0-3.23-7.43,12.4,12.4,0,0,0-8.24-2.72,21.62,21.62,0,0,0-17.5,8.24q-5.85,7.13-6.64,20.11A80.21,80.21,0,0,1,290,87.28q-4.41,6.1-6.91,6.25c-.59,0-.89-1.1-.89-3.31s.47-7.5,1.4-15.88a188.19,188.19,0,0,0,1.4-19,6.49,6.49,0,0,0-2.43-5.15,8.29,8.29,0,0,0-5.51-2.06q-3.09,0-7,4.27a91.51,91.51,0,0,0-9.48,13.38q-5.59,9.12-6.18,10,0-7.8.15-11.47,4.41-5.88,8.67-16.91a65,65,0,0,0,4.27-23.68A20.41,20.41,0,0,0,266,15.3q-1.47-3.24-2.94-3.24a10.36,10.36,0,0,0-6.33,2.36q-13.38,10.29-13.38,47.94v8.53c0,.6,0,1.28,0,2A35,35,0,0,1,241.46,76Q229.25,93.69,216,93.68q-11.18,0-17.35-8.46a31.9,31.9,0,0,1-6.18-19.33q0-15.73,9-30.59t20.08-14.85q11.1,0,11.1,10.44a10.5,10.5,0,0,1-2.87,6.76q-2.86,3.39-2.87,6,0,2.35,4.34,2.35t7.43-5.29a22.35,22.35,0,0,0,3.09-11.47,13.25,13.25,0,0,0-4.42-10.22A16.08,16.08,0,0,0,226,15q-18.24,0-31.54,15.67T181.17,71.92c0,.91.05,1.82.12,2.73A84.11,84.11,0,0,1,174,87.28q-4.41,6.1-6.91,6.25c-.59,0-.89-1.32-.89-4q0-21.32,1.91-25.44a25.5,25.5,0,0,0,1.84-6.32,39,39,0,0,0,.81-5.59c0-3.72-.71-5.59-2.13-5.59s-3.41,1.08-6,3.24a27.61,27.61,0,0,0-4.56,4.41q-.74,1.17-1.69,15.95c-.12,2-.24,3.8-.34,5.53a82,82,0,0,1-6.79,11.53q-4.41,6.1-6.91,6.25c-.59,0-.88-1.32-.88-4q0-20.58,1.32-24a22.77,22.77,0,0,0,1.84-6.17,38.48,38.48,0,0,0,.81-5.74c0-3.72-.71-5.59-2.13-5.59s-3.14.76-5.15,2.28a20.75,20.75,0,0,0-4.19,3.9q-5.88-6.18-10.59-6.18-10.87,0-17.57,9.12a34.94,34.94,0,0,0-3,4.92,1,1,0,0,0-.36-.07q-1,0-5.3,9.63a87.07,87.07,0,0,1-8.82,15.74q-4.49,6.1-7.13,6.1t-2.65-24q0-24,1.77-36.47Q89,22.8,89,12.8a10.55,10.55,0,0,0-2.28-6.32q-2.28-3.09-4.33-3.09-6,0-10.59,27.79a157.5,157.5,0,0,0-18.83,25A109.7,109.7,0,0,0,39.27,29.12a29.82,29.82,0,0,0-1-7.86q-1-3.75-2.5-3.75c-3.24,0-5.57,1-7,3.08a12.27,12.27,0,0,0-2.13,7.14q0,4,6.33,12.28a168.81,168.81,0,0,1-7.43,29.85Q20.45,84.41,14.71,90.44A8.53,8.53,0,0,1,10.81,92a17.31,17.31,0,0,0-5.22,2q-2.2,1.34-2.2,4.56,0,4,5.14,4,7.07,0,12.21-6.84t10-20.8A176.29,176.29,0,0,0,38,47.5a92.84,92.84,0,0,1,8.53,20.15q-6.33,13.09-6.33,21,0,11.61,6,11.62,5,0,8.31-4.71T57.8,82.28a81.88,81.88,0,0,0-3.09-20.36A116.11,116.11,0,0,1,70.3,42.8q-1.77,16.47-1.77,42.94,0,11.17,1.47,12.94a7.41,7.41,0,0,0,3.24,1.54,20,20,0,0,0,5.88.81q8.52,0,19.26-22.79c.29-.62.54-1.19.8-1.77,0,.56-.06,1.12-.06,1.69q0,11.85,4.41,17.36T113.82,101a11.85,11.85,0,0,0,9.64-4.63q3.74-4.64,7.57-14.19-.3,7-.3,11.25c0,2.79.35,4.53,1,5.22,2,1.57,4.86,2.35,8.68,2.35q6.39,0,15.15-16-.15,3.8-.15,6.28,0,6.32,1,7.35,2.94,2.35,8.67,2.35,7.17,0,17.34-20.15a36.94,36.94,0,0,0,5,10.45,23.85,23.85,0,0,0,8.39,7.49,23.39,23.39,0,0,0,11.61,3q21.9,0,35.3-18.83c-.07.92-.15,1.87-.23,2.87q-.81,9.93-.81,11.62t3.24,2.64a23.65,23.65,0,0,0,6.76,1q2.35,0,2.36-4.12L254,92.36a57.4,57.4,0,0,1,.88-9.71q.45-2.79,7.65-12.87t8.9-10.07c1.12,0,1.69,1.62,1.69,4.85s-.27,8.12-.81,14.63-.81,11.23-.81,14.12.34,4.68,1,5.37q2.94,2.35,8.67,2.35,6.51,0,15.46-16.54a22.43,22.43,0,0,0,4.54,10.29A15.71,15.71,0,0,0,314.25,101q14.26,0,24-15.73,1.57-2.6,2.87-5-1.68,17.88-1.69,31.12,0,15.59.44,22.5a26.7,26.7,0,0,0,2.5,9.27,6.44,6.44,0,0,0,6.47,4.11,11.63,11.63,0,0,0,9.19-4.41,27.74,27.74,0,0,0,5.51-11.47,108.68,108.68,0,0,0,3.09-26.17,121.46,121.46,0,0,0-3.82-30.88,58.43,58.43,0,0,0,15.44-7.8q2.94-2.2,2.94-3.67C381.16,62,380.86,61.47,380.28,61.47Zm-70-1.54q3.53-7.12,8.68-7.13c2.84,0,4.26,2.2,4.26,6.62a14.67,14.67,0,0,1-4,10.73q-4.05,4.13-12.72,5.59A38.08,38.08,0,0,1,310.28,59.93ZM256.75,37.06q2.5-16.32,5.15-16.32,1.62,0,1.62,6.18,0,12.19-8.68,30.29Q255.43,45.74,256.75,37.06ZM48.09,90.37c-.49,2.4-1.22,3.6-2.2,3.6s-1.47-2-1.47-6.1S45.59,79.17,48,74a50.56,50.56,0,0,1,.88,8.83A37.82,37.82,0,0,1,48.09,90.37Zm84.48-25.44c-.14,1.91-.27,3.26-.37,4q-9.4,24.27-14.26,24.27-4,0-6.4-5.3t-2.42-13.52a23,23,0,0,1,4.63-14.34Q118.39,54,122.5,54a11.21,11.21,0,0,1,5.81,2.14,13.55,13.55,0,0,1,4.63,4.48C132.84,61.57,132.72,63,132.57,64.93ZM344.1,55.74c-.29,1.76-.64,4.41-1,7.94a8.55,8.55,0,0,1-1.18-4.56A3.18,3.18,0,0,1,344.1,55.74Zm14-29.71q2.73-10.73,5.08-10.73,1.32,0,1.32,6.47T361,37.87a96.11,96.11,0,0,1-7.79,16.69A243.18,243.18,0,0,1,358.14,26Zm-5.8,35.89.88-1.47a38.66,38.66,0,0,1,4.41,9.41,20.2,20.2,0,0,1-2.57.14,11.62,11.62,0,0,1-3.46-.59Zm7.2,68.15q-2.94,11.55-7.35,11.55-2.51,0-2.5-23.46T351,76.62a31.85,31.85,0,0,0,8.24-1.18,131.32,131.32,0,0,1,3.23,28.75A104.94,104.94,0,0,1,359.54,130.07Z"/><path class="cls-2" d="M150.87,31.25a7.07,7.07,0,0,0,3.9,1.32q7.5,0,7.5-7.5a4,4,0,0,0-1.62-3.23,6.08,6.08,0,0,0-4-1.33,9.42,9.42,0,0,0-5.07,1.77,5.38,5.38,0,0,0-2.72,4.7A4.75,4.75,0,0,0,150.87,31.25Z"/><path class="cls-2" d="M170.58,31.25a7.22,7.22,0,0,0,4,1.32q7.35,0,7.36-7.5a4.1,4.1,0,0,0-1.55-3.23,5.8,5.8,0,0,0-3.9-1.33,9.79,9.79,0,0,0-5.14,1.77,5.34,5.34,0,0,0-2.8,4.7A4.76,4.76,0,0,0,170.58,31.25Z"/><path class="cls-2" d="M378.43,59.63a59.09,59.09,0,0,0-5.66,2.94,54,54,0,0,1-13.31,4.85,48,48,0,0,0-5.73-12.64q12.19-20.6,12.2-37.06,0-10.44-4.7-10.44-4.12,0-8.24,5.81a40.55,40.55,0,0,0-6.1,15.07q-2,9.27-4,22.06a10.57,10.57,0,0,0-5.89,3.9c-1.56,2-2.35,4.85-2.35,8.52a10.71,10.71,0,0,0,3.95,8.26,82.09,82.09,0,0,1-7.92,12.7,22.61,22.61,0,0,1-6.47,5.88,15.39,15.39,0,0,1-7.94,2.06c-2.94,0-5.52-1.4-7.72-4.19a18.67,18.67,0,0,1-3.9-9.93q10.74-.28,18.16-6.25t7.43-14.78A9.18,9.18,0,0,0,327,49a12.36,12.36,0,0,0-8.23-2.72,21.62,21.62,0,0,0-17.5,8.23q-5.87,7.14-6.64,20.11a79.73,79.73,0,0,1-6.45,10.85q-4.41,6.11-6.91,6.25c-.59,0-.88-1.1-.88-3.31s.46-7.5,1.4-15.88a187.5,187.5,0,0,0,1.39-19,6.49,6.49,0,0,0-2.42-5.14,8.27,8.27,0,0,0-5.52-2.06q-3.09,0-7,4.26a93,93,0,0,0-9.49,13.39c-3.72,6.07-5.78,9.41-6.17,10q0-7.78.14-11.47,4.43-5.88,8.68-16.91a65.1,65.1,0,0,0,4.26-23.67,20.38,20.38,0,0,0-1.47-8.38q-1.47-3.24-2.94-3.24a10.4,10.4,0,0,0-6.32,2.35q-13.38,10.31-13.38,47.94V69c0,.61,0,1.28,0,2a35.45,35.45,0,0,1-1.88,3.16q-12.21,17.64-25.44,17.65-11.18,0-17.35-8.46A31.93,31.93,0,0,1,190.65,64q0-15.74,9-30.59T219.69,18.6q11.1,0,11.11,10.44a10.52,10.52,0,0,1-2.87,6.77q-2.87,3.38-2.87,6,0,2.35,4.34,2.35t7.42-5.29a22.38,22.38,0,0,0,3.09-11.47,13.26,13.26,0,0,0-4.41-10.22,16.09,16.09,0,0,0-11.32-4.05q-18.24,0-31.55,15.66t-13.3,41.25q0,1.38.12,2.73a84.59,84.59,0,0,1-7.33,12.64q-4.41,6.11-6.91,6.25c-.59,0-.88-1.33-.88-4q0-21.33,1.91-25.44A25.91,25.91,0,0,0,168.08,56a39,39,0,0,0,.81-5.58q0-5.59-2.14-5.59T160.8,48a28,28,0,0,0-4.56,4.41q-.74,1.19-1.69,16c-.13,2-.24,3.79-.34,5.52a81.56,81.56,0,0,1-6.79,11.54q-4.41,6.11-6.91,6.25c-.59,0-.88-1.33-.88-4q0-20.59,1.32-24a23.11,23.11,0,0,0,1.84-6.18,39.67,39.67,0,0,0,.81-5.73c0-3.73-.72-5.59-2.14-5.59s-3.14.76-5.14,2.28a21,21,0,0,0-4.19,3.89q-5.9-6.16-10.59-6.17-10.89,0-17.57,9.12a34.28,34.28,0,0,0-3,4.91,1.36,1.36,0,0,0-.37-.06q-.94,0-5.29,9.63a87.42,87.42,0,0,1-8.82,15.74q-4.48,6.09-7.13,6.1t-2.65-24q0-24,1.76-36.47Q87.14,21,87.13,11a10.56,10.56,0,0,0-2.28-6.33q-2.28-3.09-4.34-3.09-6,0-10.59,27.8a157.59,157.59,0,0,0-18.82,25A109.91,109.91,0,0,0,37.42,27.28a29.89,29.89,0,0,0-1-7.87c-.69-2.5-1.53-3.75-2.5-3.75q-4.86,0-7,3.09a12.26,12.26,0,0,0-2.13,7.13q0,4.05,6.32,12.28A168.35,168.35,0,0,1,23.68,68Q18.6,82.57,12.87,88.6A8.55,8.55,0,0,1,9,90.14a17.58,17.58,0,0,0-5.22,2q-2.2,1.32-2.21,4.56c0,2.64,1.72,4,5.15,4q7.06,0,12.21-6.84T28.9,73a177.24,177.24,0,0,0,7.2-27.35,91.87,91.87,0,0,1,8.53,20.15q-6.33,13.08-6.32,21,0,11.61,6,11.61,5,0,8.31-4.7T56,80.44a82.36,82.36,0,0,0-3.08-20.37A116.48,116.48,0,0,1,68.45,41a421.75,421.75,0,0,0-1.76,42.94q0,11.19,1.47,12.94a7.28,7.28,0,0,0,3.23,1.55,20.11,20.11,0,0,0,5.89.81q8.52,0,19.26-22.8c.28-.61.54-1.19.79-1.77,0,.57-.06,1.13-.06,1.7q0,11.84,4.42,17.35T112,99.19a11.84,11.84,0,0,0,9.63-4.64q3.75-4.62,7.57-14.18-.28,7-.29,11.24t1,5.22q2.94,2.36,8.68,2.36,6.38,0,15.14-16c-.1,2.52-.15,4.62-.15,6.27,0,4.22.35,6.67,1,7.35,2,1.57,4.86,2.36,8.68,2.36q7.17,0,17.33-20.16a36.85,36.85,0,0,0,5,10.45A23.94,23.94,0,0,0,194,97a23.53,23.53,0,0,0,11.62,2.94q21.9,0,35.29-18.83c-.07.93-.14,1.88-.22,2.88q-.81,9.93-.81,11.61c0,1.13,1.08,2,3.24,2.65a23.6,23.6,0,0,0,6.76,1q2.35,0,2.35-4.12l-.14-4.56a57.29,57.29,0,0,1,.88-9.7q.44-2.81,7.64-12.87t8.9-10.07c1.13,0,1.69,1.61,1.69,4.85s-.27,8.11-.81,14.63-.81,11.23-.81,14.12.35,4.68,1,5.36c2,1.57,4.86,2.36,8.68,2.36q6.49,0,15.46-16.55a22.46,22.46,0,0,0,4.54,10.3,15.68,15.68,0,0,0,13.09,6.25q14.25,0,24-15.74c1.05-1.72,2-3.37,2.87-4.94q-1.69,17.88-1.7,31.12,0,15.59.44,22.5a26.81,26.81,0,0,0,2.5,9.26,6.45,6.45,0,0,0,6.47,4.12,11.62,11.62,0,0,0,9.19-4.41,27.93,27.93,0,0,0,5.52-11.47,108.76,108.76,0,0,0,3.09-26.18,121.12,121.12,0,0,0-3.83-30.88,57.82,57.82,0,0,0,15.44-7.79q2.94-2.2,2.94-3.68C379.31,60.12,379,59.63,378.43,59.63Zm-70-1.54Q312,50.95,317.11,51c2.84,0,4.27,2.21,4.27,6.62a14.68,14.68,0,0,1-4.05,10.74q-4.05,4.11-12.72,5.58A38,38,0,0,1,308.44,58.09ZM254.91,35.22q2.5-16.32,5.15-16.32,1.6,0,1.61,6.17,0,12.21-8.67,30.3Q253.58,43.9,254.91,35.22ZM46.25,88.53c-.49,2.4-1.23,3.6-2.21,3.6s-1.47-2-1.47-6.1,1.18-8.7,3.53-13.9A49.59,49.59,0,0,1,47,81,37.93,37.93,0,0,1,46.25,88.53Zm84.48-25.44c-.15,1.91-.27,3.26-.37,4Q121,91.4,116.1,91.39q-4,0-6.4-5.29t-2.43-13.53a23,23,0,0,1,4.64-14.34q4.62-6.09,8.75-6.1a11.16,11.16,0,0,1,5.8,2.13,13.71,13.71,0,0,1,4.64,4.49C131,59.73,130.88,61.17,130.73,63.09ZM342.26,53.9q-.45,2.64-1,7.94a8.51,8.51,0,0,1-1.18-4.56A3.17,3.17,0,0,1,342.26,53.9Zm14-29.71q2.71-10.73,5.07-10.73c.89,0,1.33,2.15,1.33,6.47s-1.18,9.68-3.53,16.1a96.06,96.06,0,0,1-7.8,16.69A245,245,0,0,1,356.3,24.19Zm-5.81,35.88.88-1.47A38.46,38.46,0,0,1,355.79,68a18.47,18.47,0,0,1-2.58.15,11.89,11.89,0,0,1-3.45-.59Zm7.21,68.16q-2.94,11.55-7.35,11.54-2.5,0-2.51-23.45t1.33-41.54a31.78,31.78,0,0,0,8.23-1.18,130.73,130.73,0,0,1,3.24,28.75A105,105,0,0,1,357.7,128.23Z"/><path class="cls-3" d="M149.33,29.71a7,7,0,0,0,3.9,1.32q7.5,0,7.5-7.5a4.06,4.06,0,0,0-1.62-3.24,6.09,6.09,0,0,0-4-1.32,9.54,9.54,0,0,0-5.08,1.76,5.4,5.4,0,0,0-2.72,4.71A4.78,4.78,0,0,0,149.33,29.71Z"/><path class="cls-3" d="M169,29.71A7.25,7.25,0,0,0,173.08,31q7.35,0,7.35-7.5a4.13,4.13,0,0,0-1.54-3.24A5.79,5.79,0,0,0,175,19a9.86,9.86,0,0,0-5.15,1.76,5.37,5.37,0,0,0-2.79,4.71A4.77,4.77,0,0,0,169,29.71Z"/><path class="cls-3" d="M376.89,58.09A57.69,57.69,0,0,0,371.23,61a54.17,54.17,0,0,1-13.31,4.85,48.38,48.38,0,0,0-5.74-12.65q12.21-20.58,12.21-37,0-10.44-4.71-10.44-4.11,0-8.23,5.8a40.51,40.51,0,0,0-6.1,15.08q-2,9.25-4.05,22.05a10.58,10.58,0,0,0-5.88,3.9q-2.35,3-2.35,8.53A10.72,10.72,0,0,0,337,69.36a82.57,82.57,0,0,1-7.92,12.7,22.74,22.74,0,0,1-6.47,5.88A15.52,15.52,0,0,1,314.68,90q-4.41,0-7.72-4.19a18.81,18.81,0,0,1-3.89-9.93q10.73-.3,18.16-6.25t7.43-14.78a9.2,9.2,0,0,0-3.24-7.43,12.37,12.37,0,0,0-8.23-2.72,21.59,21.59,0,0,0-17.5,8.24q-5.87,7.13-6.64,20.11a81.24,81.24,0,0,1-6.45,10.84q-4.41,6.1-6.91,6.25c-.59,0-.88-1.1-.88-3.31s.46-7.49,1.39-15.88a188.19,188.19,0,0,0,1.4-19,6.49,6.49,0,0,0-2.43-5.15,8.28,8.28,0,0,0-5.51-2.06c-2.06,0-4.39,1.43-7,4.27a92.29,92.29,0,0,0-9.48,13.38q-5.59,9.12-6.18,10c0-5.19.05-9,.15-11.47Q255.57,55,259.84,44a65.12,65.12,0,0,0,4.26-23.68,20.41,20.41,0,0,0-1.47-8.38q-1.47-3.23-2.94-3.23A10.3,10.3,0,0,0,253.37,11Q240,21.32,240,59V67.5c0,.6,0,1.28,0,2a35,35,0,0,1-1.88,3.15q-12.19,17.65-25.44,17.65-11.17,0-17.35-8.46A31.9,31.9,0,0,1,189.1,62.5q0-15.73,9-30.59t20.07-14.85q11.1,0,11.1,10.44a10.48,10.48,0,0,1-2.87,6.76q-2.87,3.39-2.86,6,0,2.35,4.33,2.35t7.43-5.29a22.35,22.35,0,0,0,3.09-11.47A13.27,13.27,0,0,0,234,15.66a16.14,16.14,0,0,0-11.33-4q-18.23,0-31.54,15.66T177.78,68.53c0,.91.05,1.82.13,2.73a85,85,0,0,1-7.33,12.63q-4.41,6.1-6.91,6.25c-.59,0-.89-1.32-.89-4q0-21.32,1.92-25.44a26,26,0,0,0,1.83-6.32,39,39,0,0,0,.81-5.59c0-3.72-.71-5.59-2.13-5.59s-3.41,1.08-6,3.24a27.8,27.8,0,0,0-4.55,4.41Q154,52.07,153,66.83c-.13,2-.24,3.8-.35,5.53a81,81,0,0,1-6.79,11.53Q141.46,90,139,90.14c-.58,0-.88-1.32-.88-4q0-20.58,1.32-24A22.77,22.77,0,0,0,141.24,56a38.31,38.31,0,0,0,.81-5.74c0-3.72-.71-5.59-2.13-5.59s-3.14.77-5.15,2.28a21,21,0,0,0-4.19,3.9Q124.7,44.7,120,44.7q-10.87,0-17.57,9.12a34,34,0,0,0-3,4.92,1.06,1.06,0,0,0-.37-.06q-1,0-5.29,9.63A87.89,87.89,0,0,1,84.92,84q-4.48,6.1-7.13,6.1t-2.65-24q0-24,1.77-36.46,8.67-10.3,8.68-20.3a10.62,10.62,0,0,0-2.28-6.32C81.78,1,80.34,0,79,0q-6,0-10.59,27.79a157.44,157.44,0,0,0-18.82,25A110.08,110.08,0,0,0,35.88,25.73a29.41,29.41,0,0,0-1-7.86q-1-3.75-2.5-3.75-4.84,0-7,3.09a12.15,12.15,0,0,0-2.14,7.13q0,4,6.33,12.28a168.81,168.81,0,0,1-7.43,29.85Q17.06,81,11.32,87.06A8.66,8.66,0,0,1,7.43,88.6a17.05,17.05,0,0,0-5.22,2A4.87,4.87,0,0,0,0,95.14c0,2.65,1.71,4,5.15,4q7,0,12.2-6.83t10-20.81a176.47,176.47,0,0,0,7.21-27.35,92.56,92.56,0,0,1,8.53,20.14q-6.33,13.09-6.33,21,0,11.63,6,11.62,5,0,8.31-4.71t3.31-13.31a81.88,81.88,0,0,0-3.09-20.36A116.11,116.11,0,0,1,66.91,39.41q-1.77,16.47-1.77,42.94,0,11.18,1.48,12.94a7.3,7.3,0,0,0,3.23,1.54,20,20,0,0,0,5.88.81q8.53,0,19.27-22.79c.28-.61.53-1.19.79-1.77,0,.56-.06,1.12-.06,1.7q0,11.84,4.41,17.35t10.29,5.51A11.85,11.85,0,0,0,120.07,93q3.75-4.64,7.57-14.19c-.2,4.71-.29,8.46-.29,11.25s.34,4.54,1,5.22c2,1.57,4.85,2.35,8.67,2.35q6.39,0,15.15-16-.15,3.8-.15,6.28c0,4.21.34,6.67,1,7.35q2.94,2.35,8.67,2.35,7.17,0,17.34-20.15a36.71,36.71,0,0,0,5,10.45,23.85,23.85,0,0,0,8.38,7.5,23.52,23.52,0,0,0,11.61,2.94q21.92,0,35.3-18.83c-.07.92-.14,1.87-.23,2.87q-.81,9.93-.8,11.62c0,1.13,1.07,2,3.23,2.65a24,24,0,0,0,6.77,1c1.56,0,2.35-1.37,2.35-4.11L250.57,89a58.45,58.45,0,0,1,.88-9.71q.45-2.79,7.65-12.87T268,56.32c1.12,0,1.69,1.62,1.69,4.85s-.27,8.12-.81,14.64-.81,11.22-.81,14.11.34,4.69,1,5.37q2.94,2.35,8.68,2.35,6.5,0,15.45-16.54a22.38,22.38,0,0,0,4.54,10.29,15.71,15.71,0,0,0,13.09,6.25q14.26,0,24-15.73c1.05-1.73,2-3.37,2.88-5Q336,94.84,336,108.08q0,15.58.44,22.5a26.7,26.7,0,0,0,2.5,9.27,6.44,6.44,0,0,0,6.47,4.11,11.63,11.63,0,0,0,9.19-4.41,27.74,27.74,0,0,0,5.51-11.47,108.62,108.62,0,0,0,3.09-26.17A121.07,121.07,0,0,0,359.39,71a58.43,58.43,0,0,0,15.44-7.8q2.94-2.2,2.94-3.67C377.77,58.58,377.48,58.09,376.89,58.09Zm-70-1.55q3.53-7.12,8.68-7.13,4.26,0,4.26,6.62a14.67,14.67,0,0,1-4,10.73q-4.05,4.13-12.72,5.59A38.12,38.12,0,0,1,306.89,56.54ZM253.37,33.67q2.49-16.32,5.14-16.32,1.62,0,1.62,6.18,0,12.21-8.68,30.29A201.79,201.79,0,0,1,253.37,33.67ZM44.7,87c-.49,2.4-1.22,3.61-2.2,3.61S41,88.55,41,84.48s1.17-8.7,3.53-13.89a49.42,49.42,0,0,1,.88,8.82A37.75,37.75,0,0,1,44.7,87Zm84.48-25.44c-.14,1.91-.27,3.26-.36,4q-9.42,24.27-14.27,24.27c-2.64,0-4.78-1.77-6.39-5.29s-2.43-8-2.43-13.53a23,23,0,0,1,4.63-14.34q4.64-6.11,8.75-6.1a11.18,11.18,0,0,1,5.81,2.13,13.55,13.55,0,0,1,4.63,4.48C129.45,58.19,129.33,59.63,129.18,61.54Zm211.53-9.19c-.29,1.76-.64,4.41-1,7.94a8.54,8.54,0,0,1-1.17-4.56A3.17,3.17,0,0,1,340.71,52.35Zm14.05-29.7q2.72-10.74,5.07-10.74,1.32,0,1.32,6.47t-3.53,16.1a96.11,96.11,0,0,1-7.79,16.69A240.2,240.2,0,0,1,354.76,22.65ZM349,58.53l.88-1.47a37.93,37.93,0,0,1,4.41,9.41,18.31,18.31,0,0,1-2.57.15,12,12,0,0,1-3.46-.59Zm7.2,68.16q-2.94,11.53-7.35,11.54-2.51,0-2.5-23.45t1.32-41.55a32.25,32.25,0,0,0,8.24-1.17,131.32,131.32,0,0,1,3.23,28.75A105.05,105.05,0,0,1,356.15,126.69Z"/></g></g></svg>