<svg xmlns="http://www.w3.org/2000/svg" viewBox="0 0 504 504"><defs><style>.cls-1{fill:#cbb899;}</style></defs><g id="Calque_2" data-name="Calque 2"><g id="Calque_1-2" data-name="Calque 1"><path class="cls-1" d="M236,0h32c11.68,1.68,23.57,2.44,35,5.17Q452.13,40.75,495.67,188c4.56,15.49,5.64,32,8.33,48v32c-1.67,11.67-2.44,23.55-5.17,35-23.79,99.6-85,164.11-183.24,192.79-15.36,4.48-31.7,5.58-47.59,8.24H236c-11.68-1.68-23.57-2.44-35-5.17C101.59,475.11,37.15,414,8.33,316,3.77,300.55,2.69,284,0,268V236c1.67-11.67,2.44-23.55,5.17-35C28.87,101.62,89.94,37.17,187.93,8.33,203.43,3.77,220,2.69,236,0ZM484.5,252.2c0-127.71-104.2-232.6-231.17-232.7C124.46,19.4,19.56,123.27,19.5,251c-.06,128.71,104,233.43,231.91,233.46C379.93,484.53,484.49,380.32,484.5,252.2Z"/><path class="cls-1" d="M251.8,465.4q-86.42-1-149-60.94c-2.54-2.42-4.06-4.74-3.68-8.56,5.29-52.76,30.27-93.14,75.39-121.12,3.5-2.17,5.55-1.76,8.6.75,39.58,32.68,98.66,32.52,138.23-.38,2.83-2.35,4.76-2.44,7.78-.58q68,41.94,75.77,121.41c.38,3.84-1.23,6.13-3.75,8.53C359.38,444.35,309.73,464.72,251.8,465.4Z"/><path class="cls-1" d="M342.57,179.91c-.85,33.29-10.94,60.62-36.15,80.78C266,293,191.9,285.39,168.44,219.58c-13.92-39.06-8.9-76.42,19.54-108.21,19.16-21.42,44.29-29.31,72.6-26.91,43.8,3.72,73.81,37.08,80.37,78.9C341.9,169.43,342.16,175.6,342.57,179.91Z"/></g></g></svg>