<svg xmlns="http://www.w3.org/2000/svg" viewBox="0 0 553.66 553.22"><defs><style>.cls-1{fill:#cbb899;}</style></defs><g id="Calque_2" data-name="Calque 2"><g id="Calque_1-2" data-name="Calque 1"><path class="cls-1" d="M553.66,276.69c0,152.84-124,276.56-277.12,276.53S-.1,429.34,0,276.19C.1,123.32,124.32-.08,278,0,429.7.08,553.64,124.5,553.66,276.69Zm-445.12-.59h.52c0,9-.31,18,.06,26.94.87,21.08.32,42.4,3.49,63.15,5.52,36.16,26.56,60.84,62.11,71.22a145.14,145.14,0,0,0,37.34,5.38c38.43.77,76.88.64,115.32.48a314.31,314.31,0,0,0,34.82-2.18c38.7-4.5,67.28-29.81,76.93-67.5,4.21-16.44,4.39-33.27,4.55-50q.42-44.67,0-89.33c-.13-13.62-.65-27.28-2-40.83-4-41.34-30.65-71.87-71.17-80.06-15.18-3.08-31-3.77-46.61-3.81-41.92-.11-83.86,0-125.74,1.43-25.81.92-48.47,11-65.75,31.12-14.73,17.19-20.94,37.68-22,59.71C109.24,226.53,109.13,251.33,108.54,276.1Z"/><path class="cls-1" d="M140.1,276.15c0-23.45-.26-46.9.1-70.33.21-13.44,3-26.5,10.36-38,11.28-17.77,28.61-25.21,48.72-27.05,11.09-1,22.26-1.61,33.39-1.59q56.15.1,112.3.89a95.53,95.53,0,0,1,17.81,2.06c28.38,5.77,46,24.71,49,53.56A426,426,0,0,1,413.81,239c0,35.25-.43,70.51-.9,105.76-.17,12.92-2.37,25.57-8.65,37C393,402.31,374.2,411.36,351.94,412c-40.73,1.24-81.49,1.25-122.24,1.36a258,258,0,0,1-35.81-2.21c-30.29-4.16-49.28-23.55-52.6-53.81-1.55-14.17-1.76-28.52-2.14-42.8-.34-12.8-.07-25.62-.07-38.42Zm222.31.45c.06-47.82-38.28-86-86.34-86.05-47.11,0-85.6,38.59-85.57,85.86,0,47.08,38.4,85.78,85.13,85.86C323.79,362.36,362.35,324.28,362.41,276.6Zm-16.65-89.2a20,20,0,1,0,19.66-20.24A20,20,0,0,0,345.76,187.4Z"/><path class="cls-1" d="M332.41,276.33a55.85,55.85,0,0,1-55.76,56c-31,.06-56.43-25.28-56.23-56.12a56,56,0,0,1,112,.14Z"/></g></g></svg>